<svg width="64" height="64" viewBox="0 0 64 64" fill="none" xmlns="http://www.w3.org/2000/svg">
<rect x="0.5" y="0.5" width="63" height="63" rx="3.5" stroke="white"/>
<path d="M28.1406 55.2871H29.2656C29.207 55.8262 29.0527 56.3086 28.8027 56.7344C28.5527 57.1602 28.1992 57.498 27.7422 57.748C27.2852 57.9941 26.7148 58.1172 26.0312 58.1172C25.5312 58.1172 25.0762 58.0234 24.666 57.8359C24.2598 57.6484 23.9102 57.3828 23.6172 57.0391C23.3242 56.6914 23.0977 56.2754 22.9375 55.791C22.7812 55.3027 22.7031 54.7598 22.7031 54.1621V53.3125C22.7031 52.7148 22.7812 52.1738 22.9375 51.6895C23.0977 51.2012 23.3262 50.7832 23.623 50.4355C23.9238 50.0879 24.2852 49.8203 24.707 49.6328C25.1289 49.4453 25.6035 49.3516 26.1309 49.3516C26.7754 49.3516 27.3203 49.4727 27.7656 49.7148C28.2109 49.957 28.5566 50.293 28.8027 50.7227C29.0527 51.1484 29.207 51.6426 29.2656 52.2051H28.1406C28.0859 51.8066 27.9844 51.4648 27.8359 51.1797C27.6875 50.8906 27.4766 50.668 27.2031 50.5117C26.9297 50.3555 26.5723 50.2773 26.1309 50.2773C25.752 50.2773 25.418 50.3496 25.1289 50.4941C24.8438 50.6387 24.6035 50.8438 24.4082 51.1094C24.2168 51.375 24.0723 51.6934 23.9746 52.0645C23.877 52.4355 23.8281 52.8477 23.8281 53.3008V54.1621C23.8281 54.5801 23.8711 54.9727 23.957 55.3398C24.0469 55.707 24.1816 56.0293 24.3613 56.3066C24.541 56.584 24.7695 56.8027 25.0469 56.9629C25.3242 57.1191 25.6523 57.1973 26.0312 57.1973C26.5117 57.1973 26.8945 57.1211 27.1797 56.9688C27.4648 56.8164 27.6797 56.5977 27.8242 56.3125C27.9727 56.0273 28.0781 55.6855 28.1406 55.2871ZM34.334 56.3184C34.334 56.1621 34.2988 56.0176 34.2285 55.8848C34.1621 55.748 34.0234 55.625 33.8125 55.5156C33.6055 55.4023 33.293 55.3047 32.875 55.2227C32.5234 55.1484 32.2051 55.0605 31.9199 54.959C31.6387 54.8574 31.3984 54.7344 31.1992 54.5898C31.0039 54.4453 30.8535 54.2754 30.748 54.0801C30.6426 53.8848 30.5898 53.6562 30.5898 53.3945C30.5898 53.1445 30.6445 52.9082 30.7539 52.6855C30.8672 52.4629 31.0254 52.2656 31.2285 52.0938C31.4355 51.9219 31.6836 51.7871 31.9727 51.6895C32.2617 51.5918 32.584 51.543 32.9395 51.543C33.4473 51.543 33.8809 51.6328 34.2402 51.8125C34.5996 51.9922 34.875 52.2324 35.0664 52.5332C35.2578 52.8301 35.3535 53.1602 35.3535 53.5234H34.2695C34.2695 53.3477 34.2168 53.1777 34.1113 53.0137C34.0098 52.8457 33.8594 52.707 33.6602 52.5977C33.4648 52.4883 33.2246 52.4336 32.9395 52.4336C32.6387 52.4336 32.3945 52.4805 32.207 52.5742C32.0234 52.6641 31.8887 52.7793 31.8027 52.9199C31.7207 53.0605 31.6797 53.209 31.6797 53.3652C31.6797 53.4824 31.6992 53.5879 31.7383 53.6816C31.7812 53.7715 31.8555 53.8555 31.9609 53.9336C32.0664 54.0078 32.2148 54.0781 32.4062 54.1445C32.5977 54.2109 32.8418 54.2773 33.1387 54.3438C33.6582 54.4609 34.0859 54.6016 34.4219 54.7656C34.7578 54.9297 35.0078 55.1309 35.1719 55.3691C35.3359 55.6074 35.418 55.8965 35.418 56.2363C35.418 56.5137 35.3594 56.7676 35.2422 56.998C35.1289 57.2285 34.9629 57.4277 34.7441 57.5957C34.5293 57.7598 34.2715 57.8887 33.9707 57.9824C33.6738 58.0723 33.3398 58.1172 32.9688 58.1172C32.4102 58.1172 31.9375 58.0176 31.5508 57.8184C31.1641 57.6191 30.8711 57.3613 30.6719 57.0449C30.4727 56.7285 30.373 56.3945 30.373 56.043H31.4629C31.4785 56.3398 31.5645 56.5762 31.7207 56.752C31.877 56.9238 32.0684 57.0469 32.2949 57.1211C32.5215 57.1914 32.7461 57.2266 32.9688 57.2266C33.2656 57.2266 33.5137 57.1875 33.7129 57.1094C33.916 57.0312 34.0703 56.9238 34.1758 56.7871C34.2812 56.6504 34.334 56.4941 34.334 56.3184ZM40.5332 56.3184C40.5332 56.1621 40.498 56.0176 40.4277 55.8848C40.3613 55.748 40.2227 55.625 40.0117 55.5156C39.8047 55.4023 39.4922 55.3047 39.0742 55.2227C38.7227 55.1484 38.4043 55.0605 38.1191 54.959C37.8379 54.8574 37.5977 54.7344 37.3984 54.5898C37.2031 54.4453 37.0527 54.2754 36.9473 54.0801C36.8418 53.8848 36.7891 53.6562 36.7891 53.3945C36.7891 53.1445 36.8438 52.9082 36.9531 52.6855C37.0664 52.4629 37.2246 52.2656 37.4277 52.0938C37.6348 51.9219 37.8828 51.7871 38.1719 51.6895C38.4609 51.5918 38.7832 51.543 39.1387 51.543C39.6465 51.543 40.0801 51.6328 40.4395 51.8125C40.7988 51.9922 41.0742 52.2324 41.2656 52.5332C41.457 52.8301 41.5527 53.1602 41.5527 53.5234H40.4688C40.4688 53.3477 40.416 53.1777 40.3105 53.0137C40.209 52.8457 40.0586 52.707 39.8594 52.5977C39.6641 52.4883 39.4238 52.4336 39.1387 52.4336C38.8379 52.4336 38.5938 52.4805 38.4062 52.5742C38.2227 52.6641 38.0879 52.7793 38.002 52.9199C37.9199 53.0605 37.8789 53.209 37.8789 53.3652C37.8789 53.4824 37.8984 53.5879 37.9375 53.6816C37.9805 53.7715 38.0547 53.8555 38.1602 53.9336C38.2656 54.0078 38.4141 54.0781 38.6055 54.1445C38.7969 54.2109 39.041 54.2773 39.3379 54.3438C39.8574 54.4609 40.2852 54.6016 40.6211 54.7656C40.957 54.9297 41.207 55.1309 41.3711 55.3691C41.5352 55.6074 41.6172 55.8965 41.6172 56.2363C41.6172 56.5137 41.5586 56.7676 41.4414 56.998C41.3281 57.2285 41.1621 57.4277 40.9434 57.5957C40.7285 57.7598 40.4707 57.8887 40.1699 57.9824C39.873 58.0723 39.5391 58.1172 39.168 58.1172C38.6094 58.1172 38.1367 58.0176 37.75 57.8184C37.3633 57.6191 37.0703 57.3613 36.8711 57.0449C36.6719 56.7285 36.5723 56.3945 36.5723 56.043H37.6621C37.6777 56.3398 37.7637 56.5762 37.9199 56.752C38.0762 56.9238 38.2676 57.0469 38.4941 57.1211C38.7207 57.1914 38.9453 57.2266 39.168 57.2266C39.4648 57.2266 39.7129 57.1875 39.9121 57.1094C40.1152 57.0312 40.2695 56.9238 40.375 56.7871C40.4805 56.6504 40.5332 56.4941 40.5332 56.3184Z" fill="white"/>
<path d="M25 23L26.3633 38.5909L32.5 40.6471L38.6367 38.5909L40 23H25ZM37.2305 26.1513L37.043 28.0144L32.5391 29.9564L32.5273 29.9603H36.8828L36.3828 35.735L32.5469 36.8655L28.6875 35.7153L28.4375 32.8044H30.3477L30.4727 34.313L32.5273 34.8369L34.6641 34.2303L34.8086 31.8038L28.3125 31.7841V31.7802L28.3047 31.7841L28.1641 29.9603L32.543 28.1208L32.7969 28.0144H27.9961L27.7695 26.1513H37.2305Z" fill="#FC7E14"/>
</svg>
