<svg width="64" height="64" viewBox="0 0 64 64" fill="none" xmlns="http://www.w3.org/2000/svg">
<rect x="0.5" y="0.5" width="63" height="63" rx="3.5" stroke="white"/>
<path d="M10.4102 57.0801V58H5.89258V57.0801H10.4102ZM6.12109 49.4688V58H4.99023V49.4688H6.12109ZM9.8125 53.1367V54.0566H5.89258V53.1367H9.8125ZM10.3516 49.4688V50.3945H5.89258V49.4688H10.3516ZM12.3789 51.6602L13.7676 53.9688L15.1738 51.6602H16.4453L14.3711 54.7891L16.5098 58H15.2559L13.791 55.6211L12.3262 58H11.0664L13.1992 54.7891L11.1309 51.6602H12.3789ZM18.6836 52.8789V60.4375H17.5938V51.6602H18.5898L18.6836 52.8789ZM22.9551 54.7773V54.9004C22.9551 55.3613 22.9004 55.7891 22.791 56.1836C22.6816 56.5742 22.5215 56.9141 22.3105 57.2031C22.1035 57.4922 21.8477 57.7168 21.543 57.877C21.2383 58.0371 20.8887 58.1172 20.4941 58.1172C20.0918 58.1172 19.7363 58.0508 19.4277 57.918C19.1191 57.7852 18.8574 57.5918 18.6426 57.3379C18.4277 57.084 18.2559 56.7793 18.127 56.4238C18.002 56.0684 17.916 55.668 17.8691 55.2227V54.5664C17.916 54.0977 18.0039 53.6777 18.1328 53.3066C18.2617 52.9355 18.4316 52.6191 18.6426 52.3574C18.8574 52.0918 19.1172 51.8906 19.4219 51.7539C19.7266 51.6133 20.0781 51.543 20.4766 51.543C20.875 51.543 21.2285 51.6211 21.5371 51.7773C21.8457 51.9297 22.1055 52.1484 22.3164 52.4336C22.5273 52.7188 22.6855 53.0605 22.791 53.459C22.9004 53.8535 22.9551 54.293 22.9551 54.7773ZM21.8652 54.9004V54.7773C21.8652 54.4609 21.832 54.1641 21.7656 53.8867C21.6992 53.6055 21.5957 53.3594 21.4551 53.1484C21.3184 52.9336 21.1426 52.7656 20.9277 52.6445C20.7129 52.5195 20.457 52.457 20.1602 52.457C19.8867 52.457 19.6484 52.5039 19.4453 52.5977C19.2461 52.6914 19.0762 52.8184 18.9355 52.9785C18.7949 53.1348 18.6797 53.3145 18.5898 53.5176C18.5039 53.7168 18.4395 53.9238 18.3965 54.1387V55.6562C18.4746 55.9297 18.584 56.1875 18.7246 56.4297C18.8652 56.668 19.0527 56.8613 19.2871 57.0098C19.5215 57.1543 19.8164 57.2266 20.1719 57.2266C20.4648 57.2266 20.7168 57.166 20.9277 57.0449C21.1426 56.9199 21.3184 56.75 21.4551 56.5352C21.5957 56.3203 21.6992 56.0742 21.7656 55.7969C21.832 55.5156 21.8652 55.2168 21.8652 54.9004ZM25.4219 52.6562V58H24.3379V51.6602H25.3926L25.4219 52.6562ZM27.4023 51.625L27.3965 52.6328C27.3066 52.6133 27.2207 52.6016 27.1387 52.5977C27.0605 52.5898 26.9707 52.5859 26.8691 52.5859C26.6191 52.5859 26.3984 52.625 26.207 52.7031C26.0156 52.7812 25.8535 52.8906 25.7207 53.0312C25.5879 53.1719 25.4824 53.3398 25.4043 53.5352C25.3301 53.7266 25.2812 53.9375 25.2578 54.168L24.9531 54.3438C24.9531 53.9609 24.9902 53.6016 25.0645 53.2656C25.1426 52.9297 25.2617 52.6328 25.4219 52.375C25.582 52.1133 25.7852 51.9102 26.0312 51.7656C26.2812 51.6172 26.5781 51.543 26.9219 51.543C27 51.543 27.0898 51.5527 27.1914 51.5723C27.293 51.5879 27.3633 51.6055 27.4023 51.625ZM30.918 58.1172C30.4766 58.1172 30.0762 58.043 29.7168 57.8945C29.3613 57.7422 29.0547 57.5293 28.7969 57.2559C28.543 56.9824 28.3477 56.6582 28.2109 56.2832C28.0742 55.9082 28.0059 55.498 28.0059 55.0527V54.8066C28.0059 54.291 28.082 53.832 28.2344 53.4297C28.3867 53.0234 28.5938 52.6797 28.8555 52.3984C29.1172 52.1172 29.4141 51.9043 29.7461 51.7598C30.0781 51.6152 30.4219 51.543 30.7773 51.543C31.2305 51.543 31.6211 51.6211 31.9492 51.7773C32.2812 51.9336 32.5527 52.1523 32.7637 52.4336C32.9746 52.7109 33.1309 53.0391 33.2324 53.418C33.334 53.793 33.3848 54.2031 33.3848 54.6484V55.1348H28.6504V54.25H32.3008V54.168C32.2852 53.8867 32.2266 53.6133 32.125 53.3477C32.0273 53.082 31.8711 52.8633 31.6562 52.6914C31.4414 52.5195 31.1484 52.4336 30.7773 52.4336C30.5312 52.4336 30.3047 52.4863 30.0977 52.5918C29.8906 52.6934 29.7129 52.8457 29.5645 53.0488C29.416 53.252 29.3008 53.5 29.2188 53.793C29.1367 54.0859 29.0957 54.4238 29.0957 54.8066V55.0527C29.0957 55.3535 29.1367 55.6367 29.2188 55.9023C29.3047 56.1641 29.4277 56.3945 29.5879 56.5938C29.752 56.793 29.9492 56.9492 30.1797 57.0625C30.4141 57.1758 30.6797 57.2324 30.9766 57.2324C31.3594 57.2324 31.6836 57.1543 31.9492 56.998C32.2148 56.8418 32.4473 56.6328 32.6465 56.3711L33.3027 56.8926C33.166 57.0996 32.9922 57.2969 32.7812 57.4844C32.5703 57.6719 32.3105 57.8242 32.002 57.9414C31.6973 58.0586 31.3359 58.1172 30.918 58.1172ZM38.3418 56.3184C38.3418 56.1621 38.3066 56.0176 38.2363 55.8848C38.1699 55.748 38.0312 55.625 37.8203 55.5156C37.6133 55.4023 37.3008 55.3047 36.8828 55.2227C36.5312 55.1484 36.2129 55.0605 35.9277 54.959C35.6465 54.8574 35.4062 54.7344 35.207 54.5898C35.0117 54.4453 34.8613 54.2754 34.7559 54.0801C34.6504 53.8848 34.5977 53.6562 34.5977 53.3945C34.5977 53.1445 34.6523 52.9082 34.7617 52.6855C34.875 52.4629 35.0332 52.2656 35.2363 52.0938C35.4434 51.9219 35.6914 51.7871 35.9805 51.6895C36.2695 51.5918 36.5918 51.543 36.9473 51.543C37.4551 51.543 37.8887 51.6328 38.248 51.8125C38.6074 51.9922 38.8828 52.2324 39.0742 52.5332C39.2656 52.8301 39.3613 53.1602 39.3613 53.5234H38.2773C38.2773 53.3477 38.2246 53.1777 38.1191 53.0137C38.0176 52.8457 37.8672 52.707 37.668 52.5977C37.4727 52.4883 37.2324 52.4336 36.9473 52.4336C36.6465 52.4336 36.4023 52.4805 36.2148 52.5742C36.0312 52.6641 35.8965 52.7793 35.8105 52.9199C35.7285 53.0605 35.6875 53.209 35.6875 53.3652C35.6875 53.4824 35.707 53.5879 35.7461 53.6816C35.7891 53.7715 35.8633 53.8555 35.9688 53.9336C36.0742 54.0078 36.2227 54.0781 36.4141 54.1445C36.6055 54.2109 36.8496 54.2773 37.1465 54.3438C37.666 54.4609 38.0938 54.6016 38.4297 54.7656C38.7656 54.9297 39.0156 55.1309 39.1797 55.3691C39.3438 55.6074 39.4258 55.8965 39.4258 56.2363C39.4258 56.5137 39.3672 56.7676 39.25 56.998C39.1367 57.2285 38.9707 57.4277 38.752 57.5957C38.5371 57.7598 38.2793 57.8887 37.9785 57.9824C37.6816 58.0723 37.3477 58.1172 36.9766 58.1172C36.418 58.1172 35.9453 58.0176 35.5586 57.8184C35.1719 57.6191 34.8789 57.3613 34.6797 57.0449C34.4805 56.7285 34.3809 56.3945 34.3809 56.043H35.4707C35.4863 56.3398 35.5723 56.5762 35.7285 56.752C35.8848 56.9238 36.0762 57.0469 36.3027 57.1211C36.5293 57.1914 36.7539 57.2266 36.9766 57.2266C37.2734 57.2266 37.5215 57.1875 37.7207 57.1094C37.9238 57.0312 38.0781 56.9238 38.1836 56.7871C38.2891 56.6504 38.3418 56.4941 38.3418 56.3184ZM44.541 56.3184C44.541 56.1621 44.5059 56.0176 44.4355 55.8848C44.3691 55.748 44.2305 55.625 44.0195 55.5156C43.8125 55.4023 43.5 55.3047 43.082 55.2227C42.7305 55.1484 42.4121 55.0605 42.127 54.959C41.8457 54.8574 41.6055 54.7344 41.4062 54.5898C41.2109 54.4453 41.0605 54.2754 40.9551 54.0801C40.8496 53.8848 40.7969 53.6562 40.7969 53.3945C40.7969 53.1445 40.8516 52.9082 40.9609 52.6855C41.0742 52.4629 41.2324 52.2656 41.4355 52.0938C41.6426 51.9219 41.8906 51.7871 42.1797 51.6895C42.4688 51.5918 42.791 51.543 43.1465 51.543C43.6543 51.543 44.0879 51.6328 44.4473 51.8125C44.8066 51.9922 45.082 52.2324 45.2734 52.5332C45.4648 52.8301 45.5605 53.1602 45.5605 53.5234H44.4766C44.4766 53.3477 44.4238 53.1777 44.3184 53.0137C44.2168 52.8457 44.0664 52.707 43.8672 52.5977C43.6719 52.4883 43.4316 52.4336 43.1465 52.4336C42.8457 52.4336 42.6016 52.4805 42.4141 52.5742C42.2305 52.6641 42.0957 52.7793 42.0098 52.9199C41.9277 53.0605 41.8867 53.209 41.8867 53.3652C41.8867 53.4824 41.9062 53.5879 41.9453 53.6816C41.9883 53.7715 42.0625 53.8555 42.168 53.9336C42.2734 54.0078 42.4219 54.0781 42.6133 54.1445C42.8047 54.2109 43.0488 54.2773 43.3457 54.3438C43.8652 54.4609 44.293 54.6016 44.6289 54.7656C44.9648 54.9297 45.2148 55.1309 45.3789 55.3691C45.543 55.6074 45.625 55.8965 45.625 56.2363C45.625 56.5137 45.5664 56.7676 45.4492 56.998C45.3359 57.2285 45.1699 57.4277 44.9512 57.5957C44.7363 57.7598 44.4785 57.8887 44.1777 57.9824C43.8809 58.0723 43.5469 58.1172 43.1758 58.1172C42.6172 58.1172 42.1445 58.0176 41.7578 57.8184C41.3711 57.6191 41.0781 57.3613 40.8789 57.0449C40.6797 56.7285 40.5801 56.3945 40.5801 56.043H41.6699C41.6855 56.3398 41.7715 56.5762 41.9277 56.752C42.084 56.9238 42.2754 57.0469 42.502 57.1211C42.7285 57.1914 42.9531 57.2266 43.1758 57.2266C43.4727 57.2266 43.7207 57.1875 43.9199 57.1094C44.123 57.0312 44.2773 56.9238 44.3828 56.7871C44.4883 56.6504 44.541 56.4941 44.541 56.3184ZM50.793 55.5098V49.4688H51.918V55.5098C51.918 56.0723 51.8027 56.5469 51.5723 56.9336C51.3418 57.3203 51.0234 57.6152 50.6172 57.8184C50.2148 58.0176 49.752 58.1172 49.2285 58.1172C48.7051 58.1172 48.2402 58.0273 47.834 57.8477C47.4277 57.668 47.1094 57.3945 46.8789 57.0273C46.6484 56.6602 46.5332 56.1973 46.5332 55.6387H47.6641C47.6641 55.998 47.7305 56.293 47.8633 56.5234C47.9961 56.7539 48.1797 56.9238 48.4141 57.0332C48.6523 57.1426 48.9238 57.1973 49.2285 57.1973C49.5254 57.1973 49.791 57.1348 50.0254 57.0098C50.2637 56.8809 50.4512 56.6914 50.5879 56.4414C50.7246 56.1875 50.793 55.877 50.793 55.5098ZM57.3613 56.3184C57.3613 56.1621 57.3262 56.0176 57.2559 55.8848C57.1895 55.748 57.0508 55.625 56.8398 55.5156C56.6328 55.4023 56.3203 55.3047 55.9023 55.2227C55.5508 55.1484 55.2324 55.0605 54.9473 54.959C54.666 54.8574 54.4258 54.7344 54.2266 54.5898C54.0312 54.4453 53.8809 54.2754 53.7754 54.0801C53.6699 53.8848 53.6172 53.6562 53.6172 53.3945C53.6172 53.1445 53.6719 52.9082 53.7812 52.6855C53.8945 52.4629 54.0527 52.2656 54.2559 52.0938C54.4629 51.9219 54.7109 51.7871 55 51.6895C55.2891 51.5918 55.6113 51.543 55.9668 51.543C56.4746 51.543 56.9082 51.6328 57.2676 51.8125C57.627 51.9922 57.9023 52.2324 58.0938 52.5332C58.2852 52.8301 58.3809 53.1602 58.3809 53.5234H57.2969C57.2969 53.3477 57.2441 53.1777 57.1387 53.0137C57.0371 52.8457 56.8867 52.707 56.6875 52.5977C56.4922 52.4883 56.252 52.4336 55.9668 52.4336C55.666 52.4336 55.4219 52.4805 55.2344 52.5742C55.0508 52.6641 54.916 52.7793 54.8301 52.9199C54.748 53.0605 54.707 53.209 54.707 53.3652C54.707 53.4824 54.7266 53.5879 54.7656 53.6816C54.8086 53.7715 54.8828 53.8555 54.9883 53.9336C55.0938 54.0078 55.2422 54.0781 55.4336 54.1445C55.625 54.2109 55.8691 54.2773 56.166 54.3438C56.6855 54.4609 57.1133 54.6016 57.4492 54.7656C57.7852 54.9297 58.0352 55.1309 58.1992 55.3691C58.3633 55.6074 58.4453 55.8965 58.4453 56.2363C58.4453 56.5137 58.3867 56.7676 58.2695 56.998C58.1562 57.2285 57.9902 57.4277 57.7715 57.5957C57.5566 57.7598 57.2988 57.8887 56.998 57.9824C56.7012 58.0723 56.3672 58.1172 55.9961 58.1172C55.4375 58.1172 54.9648 58.0176 54.5781 57.8184C54.1914 57.6191 53.8984 57.3613 53.6992 57.0449C53.5 56.7285 53.4004 56.3945 53.4004 56.043H54.4902C54.5059 56.3398 54.5918 56.5762 54.748 56.752C54.9043 56.9238 55.0957 57.0469 55.3223 57.1211C55.5488 57.1914 55.7734 57.2266 55.9961 57.2266C56.293 57.2266 56.541 57.1875 56.7402 57.1094C56.9434 57.0312 57.0977 56.9238 57.2031 56.7871C57.3086 56.6504 57.3613 56.4941 57.3613 56.3184Z" fill="white"/>
<path d="M44 38.4871C43.127 38.7078 42.587 38.4968 42.1025 37.7733L38.657 33.0329L38.159 32.3766L34.1353 37.789C33.6755 38.4401 33.1933 38.7235 32.3353 38.493L37.4878 31.6151L32.6908 25.4025C33.5158 25.2429 34.0857 25.3242 34.592 26.0588L38.1658 30.8581L41.7657 26.0849C42.227 25.4338 42.7228 25.1862 43.5508 25.4264L41.6908 27.8786L39.1708 31.1416C38.8708 31.5145 38.912 31.7695 39.188 32.1298L44 38.4871ZM20.006 31.5003L20.4275 29.4389C21.575 25.3593 26.2775 23.664 29.5205 26.1849C31.4158 27.6676 31.8868 29.7648 31.793 32.1141H21.11C20.9495 36.3429 24.0103 38.895 27.9125 37.5928C29.2812 37.1357 30.0875 36.0699 30.491 34.7364C30.6958 34.0681 31.0348 33.9637 31.6663 34.1546C31.3438 35.8223 30.6162 37.2155 29.0787 38.0873C26.7815 39.3925 23.5025 38.9704 21.7775 37.1565C20.75 36.1042 20.3255 34.7707 20.135 33.3447C20.105 33.109 20.045 32.8845 20 32.6585C20.004 32.2727 20.006 31.8869 20.006 31.501V31.5003ZM21.1295 31.2169H30.7835C30.7205 28.159 28.8057 25.9872 26.189 25.9686C23.3165 25.9462 21.254 28.0666 21.1295 31.2169Z" fill="white"/>
</svg>
