<svg width="64" height="64" viewBox="0 0 64 64" fill="none" xmlns="http://www.w3.org/2000/svg">
<rect x="0.5" y="0.5" width="63" height="63" rx="3.5" stroke="white"/>
<path d="M31.2949 53.752V56.875C31.1895 57.0312 31.0215 57.207 30.791 57.4023C30.5605 57.5938 30.2422 57.7617 29.8359 57.9062C29.4336 58.0469 28.9141 58.1172 28.2773 58.1172C27.7578 58.1172 27.2793 58.0273 26.8418 57.8477C26.4082 57.6641 26.0312 57.3984 25.7109 57.0508C25.3945 56.6992 25.1484 56.2734 24.9727 55.7734C24.8008 55.2695 24.7148 54.6992 24.7148 54.0625V53.4004C24.7148 52.7637 24.7891 52.1953 24.9375 51.6953C25.0898 51.1953 25.3125 50.7715 25.6055 50.4238C25.8984 50.0723 26.2578 49.8066 26.6836 49.627C27.1094 49.4434 27.5977 49.3516 28.1484 49.3516C28.8008 49.3516 29.3457 49.4648 29.7832 49.6914C30.2246 49.9141 30.5684 50.2227 30.8145 50.6172C31.0645 51.0117 31.2246 51.4609 31.2949 51.9648H30.1641C30.1133 51.6562 30.0117 51.375 29.8594 51.1211C29.7109 50.8672 29.498 50.6641 29.2207 50.5117C28.9434 50.3555 28.5859 50.2773 28.1484 50.2773C27.7539 50.2773 27.4121 50.3496 27.123 50.4941C26.834 50.6387 26.5957 50.8457 26.4082 51.1152C26.2207 51.3848 26.0801 51.7109 25.9863 52.0938C25.8965 52.4766 25.8516 52.9082 25.8516 53.3887V54.0625C25.8516 54.5547 25.9082 54.9941 26.0215 55.3809C26.1387 55.7676 26.3047 56.0977 26.5195 56.3711C26.7344 56.6406 26.9902 56.8457 27.2871 56.9863C27.5879 57.127 27.9199 57.1973 28.2832 57.1973C28.6855 57.1973 29.0117 57.1641 29.2617 57.0977C29.5117 57.0273 29.707 56.9453 29.8477 56.8516C29.9883 56.7539 30.0957 56.6621 30.1699 56.5762V54.666H28.1953V53.752H31.2949ZM34.1836 51.6602V58H33.0938V51.6602H34.1836ZM33.0117 49.9785C33.0117 49.8027 33.0645 49.6543 33.1699 49.5332C33.2793 49.4121 33.4395 49.3516 33.6504 49.3516C33.8574 49.3516 34.0156 49.4121 34.125 49.5332C34.2383 49.6543 34.2949 49.8027 34.2949 49.9785C34.2949 50.1465 34.2383 50.291 34.125 50.4121C34.0156 50.5293 33.8574 50.5879 33.6504 50.5879C33.4395 50.5879 33.2793 50.5293 33.1699 50.4121C33.0645 50.291 33.0117 50.1465 33.0117 49.9785ZM38.5781 51.6602V52.4922H35.1504V51.6602H38.5781ZM36.3105 50.1191H37.3945V56.4297C37.3945 56.6445 37.4277 56.8066 37.4941 56.916C37.5605 57.0254 37.6465 57.0977 37.752 57.1328C37.8574 57.168 37.9707 57.1855 38.0918 57.1855C38.1816 57.1855 38.2754 57.1777 38.373 57.1621C38.4746 57.1426 38.5508 57.127 38.6016 57.1152L38.6074 58C38.5215 58.0273 38.4082 58.0527 38.2676 58.0762C38.1309 58.1035 37.9648 58.1172 37.7695 58.1172C37.5039 58.1172 37.2598 58.0645 37.0371 57.959C36.8145 57.8535 36.6367 57.6777 36.5039 57.4316C36.375 57.1816 36.3105 56.8457 36.3105 56.4238V50.1191Z" fill="white"/>
<path d="M38.717 30.832L32.1696 24.2828C31.9884 24.1017 31.7427 24 31.4864 24C31.2302 24 30.9845 24.1017 30.8032 24.2828L29.4419 25.6432L31.1669 27.3682C32.0729 27.0622 32.9307 27.9298 32.6196 28.8308L34.2824 30.4935C35.4284 30.0984 36.3308 31.5315 35.47 32.3917C34.583 33.2786 33.1192 32.2956 33.595 31.1414L32.0431 29.5915V33.6714C32.8902 34.0912 32.7884 35.0726 32.3471 35.5129C32.1315 35.7284 31.8391 35.8494 31.5343 35.8494C31.2295 35.8494 30.9371 35.7284 30.7215 35.5129C30.1333 34.9236 30.3509 33.9422 31.0982 33.6379V29.5195C30.4018 29.2346 30.2746 28.4903 30.4741 28.0128L28.7736 26.3102L24.2829 30.8016C24.1018 30.9828 24 31.2285 24 31.4848C24 31.741 24.1018 31.9868 24.2829 32.168L30.8324 38.7172C31.0136 38.8983 31.2592 39 31.5154 39C31.7716 39 32.0172 38.8983 32.1984 38.7172L38.717 32.1985C38.8982 32.0173 39 31.7715 39 31.5152C39 31.259 38.8982 31.0132 38.717 30.832Z" fill="#F14E32"/>
</svg>
