<svg width="48" height="49" viewBox="0 0 48 49" fill="none" xmlns="http://www.w3.org/2000/svg">
<path d="M16.0548 38.8086C16.0548 39.0039 15.8323 39.1602 15.5516 39.1602C15.2323 39.1895 15.0097 39.0332 15.0097 38.8086C15.0097 38.6133 15.2323 38.457 15.5129 38.457C15.8032 38.4277 16.0548 38.584 16.0548 38.8086ZM13.0452 38.3691C12.9774 38.5645 13.171 38.7891 13.4613 38.8477C13.7129 38.9453 14.0032 38.8477 14.0613 38.6523C14.1194 38.457 13.9355 38.2324 13.6452 38.1445C13.3935 38.0762 13.1129 38.1738 13.0452 38.3691ZM17.3226 38.2031C17.0419 38.2715 16.8484 38.457 16.8774 38.6816C16.9065 38.877 17.1581 39.0039 17.4484 38.9355C17.729 38.8672 17.9226 38.6816 17.8935 38.4863C17.8645 38.3008 17.6032 38.1738 17.3226 38.2031ZM23.6903 0.78125C10.2677 0.78125 0 11.0645 0 24.6094C0 35.4395 6.75484 44.707 16.4032 47.9688C17.6419 48.1934 18.0774 47.4219 18.0774 46.7871C18.0774 46.1816 18.0484 42.8418 18.0484 40.791C18.0484 40.791 11.2742 42.2559 9.85161 37.8809C9.85161 37.8809 8.74839 35.0391 7.16129 34.3066C7.16129 34.3066 4.94516 32.7734 7.31613 32.8027C7.31613 32.8027 9.72581 32.998 11.0516 35.3223C13.171 39.0918 16.7226 38.0078 18.1065 37.3633C18.329 35.8008 18.9581 34.7168 19.6548 34.0723C14.2452 33.4668 8.7871 32.6758 8.7871 23.2812C8.7871 20.5957 9.52258 19.248 11.071 17.5293C10.8194 16.8945 9.99677 14.2773 11.3226 10.8984C13.3452 10.2637 18 13.5352 18 13.5352C19.9355 12.9883 22.0161 12.7051 24.0774 12.7051C26.1387 12.7051 28.2194 12.9883 30.1548 13.5352C30.1548 13.5352 34.8097 10.2539 36.8323 10.8984C38.1581 14.2871 37.3355 16.8945 37.0839 17.5293C38.6323 19.2578 39.5806 20.6055 39.5806 23.2812C39.5806 32.7051 33.8806 33.457 28.471 34.0723C29.3613 34.8438 30.1161 36.3086 30.1161 38.6035C30.1161 41.8945 30.0871 45.9668 30.0871 46.7676C30.0871 47.4023 30.5323 48.1738 31.7613 47.9492C41.4387 44.707 48 35.4395 48 24.6094C48 11.0645 37.1129 0.78125 23.6903 0.78125ZM9.40645 34.4629C9.28064 34.5605 9.30968 34.7852 9.47419 34.9707C9.62903 35.127 9.85161 35.1953 9.97742 35.0684C10.1032 34.9707 10.0742 34.7461 9.90968 34.5605C9.75484 34.4043 9.53226 34.3359 9.40645 34.4629ZM8.36129 33.6719C8.29355 33.7988 8.39032 33.9551 8.58387 34.0527C8.73871 34.1504 8.93226 34.1211 9 33.9844C9.06774 33.8574 8.97097 33.7012 8.77742 33.6035C8.58387 33.5449 8.42903 33.5742 8.36129 33.6719ZM11.4968 37.1484C11.3419 37.2754 11.4 37.5684 11.6226 37.7539C11.8452 37.9785 12.1258 38.0078 12.2516 37.8516C12.3774 37.7246 12.3194 37.4316 12.1258 37.2461C11.9129 37.0215 11.6226 36.9922 11.4968 37.1484ZM10.3935 35.7129C10.2387 35.8105 10.2387 36.0645 10.3935 36.2891C10.5484 36.5137 10.8097 36.6113 10.9355 36.5137C11.0903 36.3867 11.0903 36.1328 10.9355 35.9082C10.8 35.6836 10.5484 35.5859 10.3935 35.7129Z" fill="black"/>
</svg>
