<svg width="64" height="64" viewBox="0 0 64 64" fill="none" xmlns="http://www.w3.org/2000/svg">
<rect x="0.5" y="0.5" width="63" height="63" rx="3.5" stroke="white"/>
<path d="M25.5625 53.1367V54.0566H20.9453V53.1367H25.5625ZM21.1211 49.4688V58H19.9902V49.4688H21.1211ZM26.5469 49.4688V58H25.4219V49.4688H26.5469ZM31.0469 51.6602V52.4922H27.6191V51.6602H31.0469ZM28.7793 50.1191H29.8633V56.4297C29.8633 56.6445 29.8965 56.8066 29.9629 56.916C30.0293 57.0254 30.1152 57.0977 30.2207 57.1328C30.3262 57.168 30.4395 57.1855 30.5605 57.1855C30.6504 57.1855 30.7441 57.1777 30.8418 57.1621C30.9434 57.1426 31.0195 57.127 31.0703 57.1152L31.0762 58C30.9902 58.0273 30.877 58.0527 30.7363 58.0762C30.5996 58.1035 30.4336 58.1172 30.2383 58.1172C29.9727 58.1172 29.7285 58.0645 29.5059 57.959C29.2832 57.8535 29.1055 57.6777 28.9727 57.4316C28.8438 57.1816 28.7793 56.8457 28.7793 56.4238V50.1191ZM33.3965 52.9199V58H32.3066V51.6602H33.3379L33.3965 52.9199ZM33.1738 54.5898L32.6699 54.5723C32.6738 54.1387 32.7305 53.7383 32.8398 53.3711C32.9492 53 33.1113 52.6777 33.3262 52.4043C33.541 52.1309 33.8086 51.9199 34.1289 51.7715C34.4492 51.6191 34.8203 51.543 35.2422 51.543C35.5391 51.543 35.8125 51.5859 36.0625 51.6719C36.3125 51.7539 36.5293 51.8848 36.7129 52.0645C36.8965 52.2441 37.0391 52.4746 37.1406 52.7559C37.2422 53.0371 37.293 53.377 37.293 53.7754V58H36.209V53.8281C36.209 53.4961 36.1523 53.2305 36.0391 53.0312C35.9297 52.832 35.7734 52.6875 35.5703 52.5977C35.3672 52.5039 35.1289 52.457 34.8555 52.457C34.5352 52.457 34.2676 52.5137 34.0527 52.627C33.8379 52.7402 33.666 52.8965 33.5371 53.0957C33.4082 53.2949 33.3145 53.5234 33.2559 53.7812C33.2012 54.0352 33.1738 54.3047 33.1738 54.5898ZM37.2812 53.9922L36.5547 54.2148C36.5586 53.8672 36.6152 53.5332 36.7246 53.2129C36.8379 52.8926 37 52.6074 37.2109 52.3574C37.4258 52.1074 37.6895 51.9102 38.002 51.7656C38.3145 51.6172 38.6719 51.543 39.0742 51.543C39.4141 51.543 39.7148 51.5879 39.9766 51.6777C40.2422 51.7676 40.4648 51.9062 40.6445 52.0938C40.8281 52.2773 40.9668 52.5137 41.0605 52.8027C41.1543 53.0918 41.2012 53.4355 41.2012 53.834V58H40.1113V53.8223C40.1113 53.4668 40.0547 53.1914 39.9414 52.9961C39.832 52.7969 39.6758 52.6582 39.4727 52.5801C39.2734 52.498 39.0352 52.457 38.7578 52.457C38.5195 52.457 38.3086 52.498 38.125 52.5801C37.9414 52.6621 37.7871 52.7754 37.6621 52.9199C37.5371 53.0605 37.4414 53.2227 37.375 53.4062C37.3125 53.5898 37.2812 53.7852 37.2812 53.9922ZM44.0195 49V58H42.9297V49H44.0195Z" fill="white"/>
<path d="M24 23L25.3633 38.5909L31.4805 40.6471L37.6367 38.5909L39 23H24ZM36.0391 28.0381H28.8594L29.0195 29.984H35.8789L35.3477 35.8296L31.5234 36.8931V36.9049H31.4805L27.625 35.8296L27.3906 32.8437H29.2539L29.3906 34.3445L31.4805 34.9157L33.5781 34.3445L33.8125 31.8944H27.293L26.793 26.1591H36.2109L36.0391 28.0381Z" fill="#F36525"/>
</svg>
