<svg width="64" height="64" viewBox="0 0 64 64" fill="none" xmlns="http://www.w3.org/2000/svg">
<rect x="0.5" y="0.5" width="63" height="63" rx="3.5" stroke="white"/>
<path d="M7.57031 55.5098V49.4688H8.69531V55.5098C8.69531 56.0723 8.58008 56.5469 8.34961 56.9336C8.11914 57.3203 7.80078 57.6152 7.39453 57.8184C6.99219 58.0176 6.5293 58.1172 6.00586 58.1172C5.48242 58.1172 5.01758 58.0273 4.61133 57.8477C4.20508 57.668 3.88672 57.3945 3.65625 57.0273C3.42578 56.6602 3.31055 56.1973 3.31055 55.6387H4.44141C4.44141 55.998 4.50781 56.293 4.64062 56.5234C4.77344 56.7539 4.95703 56.9238 5.19141 57.0332C5.42969 57.1426 5.70117 57.1973 6.00586 57.1973C6.30273 57.1973 6.56836 57.1348 6.80273 57.0098C7.04102 56.8809 7.22852 56.6914 7.36523 56.4414C7.50195 56.1875 7.57031 55.877 7.57031 55.5098ZM14.1855 56.916V53.6523C14.1855 53.4023 14.1348 53.1855 14.0332 53.002C13.9355 52.8145 13.7871 52.6699 13.5879 52.5684C13.3887 52.4668 13.1426 52.416 12.8496 52.416C12.5762 52.416 12.3359 52.4629 12.1289 52.5566C11.9258 52.6504 11.7656 52.7734 11.6484 52.9258C11.5352 53.0781 11.4785 53.2422 11.4785 53.418H10.3945C10.3945 53.1914 10.4531 52.9668 10.5703 52.7441C10.6875 52.5215 10.8555 52.3203 11.0742 52.1406C11.2969 51.957 11.5625 51.8125 11.8711 51.707C12.1836 51.5977 12.5312 51.543 12.9141 51.543C13.375 51.543 13.7812 51.6211 14.1328 51.7773C14.4883 51.9336 14.7656 52.1699 14.9648 52.4863C15.168 52.7988 15.2695 53.1914 15.2695 53.6641V56.6172C15.2695 56.8281 15.2871 57.0527 15.3223 57.291C15.3613 57.5293 15.418 57.7344 15.4922 57.9062V58H14.3613C14.3066 57.875 14.2637 57.709 14.2324 57.502C14.2012 57.291 14.1855 57.0957 14.1855 56.916ZM14.373 54.1562L14.3848 54.918H13.2891C12.9805 54.918 12.7051 54.9434 12.4629 54.9941C12.2207 55.041 12.0176 55.1133 11.8535 55.2109C11.6895 55.3086 11.5645 55.4316 11.4785 55.5801C11.3926 55.7246 11.3496 55.8945 11.3496 56.0898C11.3496 56.2891 11.3945 56.4707 11.4844 56.6348C11.5742 56.7988 11.709 56.9297 11.8887 57.0273C12.0723 57.1211 12.2969 57.168 12.5625 57.168C12.8945 57.168 13.1875 57.0977 13.4414 56.957C13.6953 56.8164 13.8965 56.6445 14.0449 56.4414C14.1973 56.2383 14.2793 56.041 14.291 55.8496L14.7539 56.3711C14.7266 56.5352 14.6523 56.7168 14.5312 56.916C14.4102 57.1152 14.248 57.3066 14.0449 57.4902C13.8457 57.6699 13.6074 57.8203 13.3301 57.9414C13.0566 58.0586 12.748 58.1172 12.4043 58.1172C11.9746 58.1172 11.5977 58.0332 11.2734 57.8652C10.9531 57.6973 10.7031 57.4727 10.5234 57.1914C10.3477 56.9062 10.2598 56.5879 10.2598 56.2363C10.2598 55.8965 10.3262 55.5977 10.459 55.3398C10.5918 55.0781 10.7832 54.8613 11.0332 54.6895C11.2832 54.5137 11.584 54.3809 11.9355 54.291C12.2871 54.2012 12.6797 54.1562 13.1133 54.1562H14.373ZM18.8086 57.0215L20.543 51.6602H21.6504L19.3711 58H18.6445L18.8086 57.0215ZM17.3613 51.6602L19.1484 57.0508L19.2715 58H18.5449L16.248 51.6602H17.3613ZM26.3379 56.916V53.6523C26.3379 53.4023 26.2871 53.1855 26.1855 53.002C26.0879 52.8145 25.9395 52.6699 25.7402 52.5684C25.541 52.4668 25.2949 52.416 25.002 52.416C24.7285 52.416 24.4883 52.4629 24.2812 52.5566C24.0781 52.6504 23.918 52.7734 23.8008 52.9258C23.6875 53.0781 23.6309 53.2422 23.6309 53.418H22.5469C22.5469 53.1914 22.6055 52.9668 22.7227 52.7441C22.8398 52.5215 23.0078 52.3203 23.2266 52.1406C23.4492 51.957 23.7148 51.8125 24.0234 51.707C24.3359 51.5977 24.6836 51.543 25.0664 51.543C25.5273 51.543 25.9336 51.6211 26.2852 51.7773C26.6406 51.9336 26.918 52.1699 27.1172 52.4863C27.3203 52.7988 27.4219 53.1914 27.4219 53.6641V56.6172C27.4219 56.8281 27.4395 57.0527 27.4746 57.291C27.5137 57.5293 27.5703 57.7344 27.6445 57.9062V58H26.5137C26.459 57.875 26.416 57.709 26.3848 57.502C26.3535 57.291 26.3379 57.0957 26.3379 56.916ZM26.5254 54.1562L26.5371 54.918H25.4414C25.1328 54.918 24.8574 54.9434 24.6152 54.9941C24.373 55.041 24.1699 55.1133 24.0059 55.2109C23.8418 55.3086 23.7168 55.4316 23.6309 55.5801C23.5449 55.7246 23.502 55.8945 23.502 56.0898C23.502 56.2891 23.5469 56.4707 23.6367 56.6348C23.7266 56.7988 23.8613 56.9297 24.041 57.0273C24.2246 57.1211 24.4492 57.168 24.7148 57.168C25.0469 57.168 25.3398 57.0977 25.5938 56.957C25.8477 56.8164 26.0488 56.6445 26.1973 56.4414C26.3496 56.2383 26.4316 56.041 26.4434 55.8496L26.9062 56.3711C26.8789 56.5352 26.8047 56.7168 26.6836 56.916C26.5625 57.1152 26.4004 57.3066 26.1973 57.4902C25.998 57.6699 25.7598 57.8203 25.4824 57.9414C25.209 58.0586 24.9004 58.1172 24.5566 58.1172C24.127 58.1172 23.75 58.0332 23.4258 57.8652C23.1055 57.6973 22.8555 57.4727 22.6758 57.1914C22.5 56.9062 22.4121 56.5879 22.4121 56.2363C22.4121 55.8965 22.4785 55.5977 22.6113 55.3398C22.7441 55.0781 22.9355 54.8613 23.1855 54.6895C23.4355 54.5137 23.7363 54.3809 24.0879 54.291C24.4395 54.2012 24.832 54.1562 25.2656 54.1562H26.5254ZM33.8379 55.8438C33.8379 55.6445 33.8066 55.4688 33.7441 55.3164C33.6855 55.1602 33.5801 55.0195 33.4277 54.8945C33.2793 54.7695 33.0723 54.6504 32.8066 54.5371C32.5449 54.4238 32.2129 54.3086 31.8105 54.1914C31.3887 54.0664 31.0078 53.9277 30.668 53.7754C30.3281 53.6191 30.0371 53.4414 29.7949 53.2422C29.5527 53.043 29.3672 52.8145 29.2383 52.5566C29.1094 52.2988 29.0449 52.0039 29.0449 51.6719C29.0449 51.3398 29.1133 51.0332 29.25 50.752C29.3867 50.4707 29.582 50.2266 29.8359 50.0195C30.0938 49.8086 30.4004 49.6445 30.7559 49.5273C31.1113 49.4102 31.5078 49.3516 31.9453 49.3516C32.5859 49.3516 33.1289 49.4746 33.5742 49.7207C34.0234 49.9629 34.3652 50.2812 34.5996 50.6758C34.834 51.0664 34.9512 51.4844 34.9512 51.9297H33.8262C33.8262 51.6094 33.7578 51.3262 33.6211 51.0801C33.4844 50.8301 33.2773 50.6348 33 50.4941C32.7227 50.3496 32.3711 50.2773 31.9453 50.2773C31.543 50.2773 31.2109 50.3379 30.9492 50.459C30.6875 50.5801 30.4922 50.7441 30.3633 50.9512C30.2383 51.1582 30.1758 51.3945 30.1758 51.6602C30.1758 51.8398 30.2129 52.0039 30.2871 52.1523C30.3652 52.2969 30.4844 52.4316 30.6445 52.5566C30.8086 52.6816 31.0156 52.7969 31.2656 52.9023C31.5195 53.0078 31.8223 53.1094 32.1738 53.207C32.6582 53.3438 33.0762 53.4961 33.4277 53.6641C33.7793 53.832 34.0684 54.0215 34.2949 54.2324C34.5254 54.4395 34.6953 54.6758 34.8047 54.9414C34.918 55.2031 34.9746 55.5 34.9746 55.832C34.9746 56.1797 34.9043 56.4941 34.7637 56.7754C34.623 57.0566 34.4219 57.2969 34.1602 57.4961C33.8984 57.6953 33.584 57.8496 33.2168 57.959C32.8535 58.0645 32.4473 58.1172 31.998 58.1172C31.6035 58.1172 31.2148 58.0625 30.832 57.9531C30.4531 57.8438 30.1074 57.6797 29.7949 57.4609C29.4863 57.2422 29.2383 56.9727 29.0508 56.6523C28.8672 56.3281 28.7754 55.9531 28.7754 55.5273H29.9004C29.9004 55.8203 29.957 56.0723 30.0703 56.2832C30.1836 56.4902 30.3379 56.6621 30.5332 56.7988C30.7324 56.9355 30.957 57.0371 31.207 57.1035C31.4609 57.166 31.7246 57.1973 31.998 57.1973C32.3926 57.1973 32.7266 57.1426 33 57.0332C33.2734 56.9238 33.4805 56.7676 33.6211 56.5645C33.7656 56.3613 33.8379 56.1211 33.8379 55.8438ZM38.7891 57.2266C39.0469 57.2266 39.2852 57.1738 39.5039 57.0684C39.7227 56.9629 39.9023 56.8184 40.043 56.6348C40.1836 56.4473 40.2637 56.2344 40.2832 55.9961H41.3145C41.2949 56.3711 41.168 56.7207 40.9336 57.0449C40.7031 57.3652 40.4004 57.625 40.0254 57.8242C39.6504 58.0195 39.2383 58.1172 38.7891 58.1172C38.3125 58.1172 37.8965 58.0332 37.541 57.8652C37.1895 57.6973 36.8965 57.4668 36.6621 57.1738C36.4316 56.8809 36.2578 56.5449 36.1406 56.166C36.0273 55.7832 35.9707 55.3789 35.9707 54.9531V54.707C35.9707 54.2812 36.0273 53.8789 36.1406 53.5C36.2578 53.1172 36.4316 52.7793 36.6621 52.4863C36.8965 52.1934 37.1895 51.9629 37.541 51.7949C37.8965 51.627 38.3125 51.543 38.7891 51.543C39.2852 51.543 39.7188 51.6445 40.0898 51.8477C40.4609 52.0469 40.752 52.3203 40.9629 52.668C41.1777 53.0117 41.2949 53.4023 41.3145 53.8398H40.2832C40.2637 53.5781 40.1895 53.3418 40.0605 53.1309C39.9355 52.9199 39.7637 52.752 39.5449 52.627C39.3301 52.498 39.0781 52.4336 38.7891 52.4336C38.457 52.4336 38.1777 52.5 37.9512 52.6328C37.7285 52.7617 37.5508 52.9375 37.418 53.1602C37.2891 53.3789 37.1953 53.623 37.1367 53.8926C37.082 54.1582 37.0547 54.4297 37.0547 54.707V54.9531C37.0547 55.2305 37.082 55.5039 37.1367 55.7734C37.1914 56.043 37.2832 56.2871 37.4121 56.5059C37.5449 56.7246 37.7227 56.9004 37.9453 57.0332C38.1719 57.1621 38.4531 57.2266 38.7891 57.2266ZM43.6172 52.6562V58H42.5332V51.6602H43.5879L43.6172 52.6562ZM45.5977 51.625L45.5918 52.6328C45.502 52.6133 45.416 52.6016 45.334 52.5977C45.2559 52.5898 45.166 52.5859 45.0645 52.5859C44.8145 52.5859 44.5938 52.625 44.4023 52.7031C44.2109 52.7812 44.0488 52.8906 43.916 53.0312C43.7832 53.1719 43.6777 53.3398 43.5996 53.5352C43.5254 53.7266 43.4766 53.9375 43.4531 54.168L43.1484 54.3438C43.1484 53.9609 43.1855 53.6016 43.2598 53.2656C43.3379 52.9297 43.457 52.6328 43.6172 52.375C43.7773 52.1133 43.9805 51.9102 44.2266 51.7656C44.4766 51.6172 44.7734 51.543 45.1172 51.543C45.1953 51.543 45.2852 51.5527 45.3867 51.5723C45.4883 51.5879 45.5586 51.6055 45.5977 51.625ZM47.7773 51.6602V58H46.6875V51.6602H47.7773ZM46.6055 49.9785C46.6055 49.8027 46.6582 49.6543 46.7637 49.5332C46.873 49.4121 47.0332 49.3516 47.2441 49.3516C47.4512 49.3516 47.6094 49.4121 47.7188 49.5332C47.832 49.6543 47.8887 49.8027 47.8887 49.9785C47.8887 50.1465 47.832 50.291 47.7188 50.4121C47.6094 50.5293 47.4512 50.5879 47.2441 50.5879C47.0332 50.5879 46.873 50.5293 46.7637 50.4121C46.6582 50.291 46.6055 50.1465 46.6055 49.9785ZM50.6016 52.8789V60.4375H49.5117V51.6602H50.5078L50.6016 52.8789ZM54.873 54.7773V54.9004C54.873 55.3613 54.8184 55.7891 54.709 56.1836C54.5996 56.5742 54.4395 56.9141 54.2285 57.2031C54.0215 57.4922 53.7656 57.7168 53.4609 57.877C53.1562 58.0371 52.8066 58.1172 52.4121 58.1172C52.0098 58.1172 51.6543 58.0508 51.3457 57.918C51.0371 57.7852 50.7754 57.5918 50.5605 57.3379C50.3457 57.084 50.1738 56.7793 50.0449 56.4238C49.9199 56.0684 49.834 55.668 49.7871 55.2227V54.5664C49.834 54.0977 49.9219 53.6777 50.0508 53.3066C50.1797 52.9355 50.3496 52.6191 50.5605 52.3574C50.7754 52.0918 51.0352 51.8906 51.3398 51.7539C51.6445 51.6133 51.9961 51.543 52.3945 51.543C52.793 51.543 53.1465 51.6211 53.4551 51.7773C53.7637 51.9297 54.0234 52.1484 54.2344 52.4336C54.4453 52.7188 54.6035 53.0605 54.709 53.459C54.8184 53.8535 54.873 54.293 54.873 54.7773ZM53.7832 54.9004V54.7773C53.7832 54.4609 53.75 54.1641 53.6836 53.8867C53.6172 53.6055 53.5137 53.3594 53.373 53.1484C53.2363 52.9336 53.0605 52.7656 52.8457 52.6445C52.6309 52.5195 52.375 52.457 52.0781 52.457C51.8047 52.457 51.5664 52.5039 51.3633 52.5977C51.1641 52.6914 50.9941 52.8184 50.8535 52.9785C50.7129 53.1348 50.5977 53.3145 50.5078 53.5176C50.4219 53.7168 50.3574 53.9238 50.3145 54.1387V55.6562C50.3926 55.9297 50.502 56.1875 50.6426 56.4297C50.7832 56.668 50.9707 56.8613 51.2051 57.0098C51.4395 57.1543 51.7344 57.2266 52.0898 57.2266C52.3828 57.2266 52.6348 57.166 52.8457 57.0449C53.0605 56.9199 53.2363 56.75 53.373 56.5352C53.5137 56.3203 53.6172 56.0742 53.6836 55.7969C53.75 55.5156 53.7832 55.2168 53.7832 54.9004ZM58.9102 51.6602V52.4922H55.4824V51.6602H58.9102ZM56.6426 50.1191H57.7266V56.4297C57.7266 56.6445 57.7598 56.8066 57.8262 56.916C57.8926 57.0254 57.9785 57.0977 58.084 57.1328C58.1895 57.168 58.3027 57.1855 58.4238 57.1855C58.5137 57.1855 58.6074 57.1777 58.7051 57.1621C58.8066 57.1426 58.8828 57.127 58.9336 57.1152L58.9395 58C58.8535 58.0273 58.7402 58.0527 58.5996 58.0762C58.4629 58.1035 58.2969 58.1172 58.1016 58.1172C57.8359 58.1172 57.5918 58.0645 57.3691 57.959C57.1465 57.8535 56.9688 57.6777 56.8359 57.4316C56.707 57.1816 56.6426 56.8457 56.6426 56.4238V50.1191Z" fill="white"/>
<path d="M37.3929 24H25.6071C24.7199 24 24 24.7199 24 25.6071V37.3929C24 38.2801 24.7199 39 25.6071 39H37.3929C38.2801 39 39 38.2801 39 37.3929V25.6071C39 24.7199 38.2801 24 37.3929 24ZM32.1629 35.6987C32.1629 37.1585 31.3058 37.8248 30.0569 37.8248C28.9286 37.8248 28.2757 37.2422 27.9408 36.5357L29.0893 35.8426C29.3103 36.2344 29.5112 36.5658 29.9967 36.5658C30.4587 36.5658 30.7533 36.385 30.7533 35.6786V30.8873H32.1629V35.6987ZM35.4978 37.8248C34.1886 37.8248 33.3415 37.202 32.9297 36.385L34.0781 35.7221C34.3795 36.2143 34.7746 36.5792 35.4676 36.5792C36.0502 36.5792 36.4252 36.2879 36.4252 35.8828C36.4252 35.4007 36.0435 35.2299 35.3973 34.9453L35.0458 34.7946C34.0279 34.3627 33.3549 33.817 33.3549 32.6685C33.3549 31.6105 34.1618 30.8069 35.4174 30.8069C36.3147 30.8069 36.9576 31.1183 37.4196 31.9353L36.3214 32.6384C36.0804 32.2065 35.8192 32.0357 35.4141 32.0357C35.0022 32.0357 34.7411 32.2969 34.7411 32.6384C34.7411 33.0603 35.0022 33.231 35.6083 33.4955L35.9598 33.6462C37.1585 34.1585 37.8315 34.6842 37.8315 35.8627C37.8315 37.1283 36.8337 37.8248 35.4978 37.8248Z" fill="#FCDC00"/>
</svg>
