<svg width="47" height="47" viewBox="0 0 47 47" fill="none" xmlns="http://www.w3.org/2000/svg">
<path d="M29.982 17.0183C35.4666 22.5086 35.3913 31.3109 30.0151 36.717C30.005 36.728 29.993 36.7399 29.982 36.7509L23.8133 42.9197C18.3725 48.3605 9.52058 48.3597 4.0806 42.9197C-1.3602 37.4798 -1.3602 28.6269 4.0806 23.1871L7.48682 19.7809C8.3901 18.8776 9.94569 19.4779 9.99232 20.7545C10.0518 22.3813 10.3435 24.0157 10.8818 25.5941C11.0641 26.1285 10.9339 26.7197 10.5346 27.119L9.33322 28.3203C6.76052 30.893 6.67983 35.0821 9.22719 37.6799C11.7997 40.3034 16.0281 40.319 18.6203 37.7267L24.7891 31.5589C27.3769 28.9711 27.3661 24.7883 24.7891 22.2113C24.4493 21.8722 24.1071 21.6087 23.8398 21.4247C23.6507 21.2948 23.4945 21.1225 23.3838 20.9216C23.2731 20.7207 23.2109 20.4967 23.2021 20.2675C23.1657 19.2975 23.5094 18.2979 24.2759 17.5314L26.2086 15.5986C26.7154 15.0918 27.5105 15.0296 28.0982 15.4397C28.7712 15.9097 29.4016 16.4379 29.982 17.0183ZM42.9194 4.08032C37.4794 -1.35974 28.6276 -1.36047 23.1868 4.08032L17.018 10.2491C17.007 10.2601 16.995 10.272 16.985 10.283C11.6088 15.6891 11.5334 24.4914 17.018 29.9817C17.5984 30.5621 18.2288 31.0903 18.9018 31.5602C19.4894 31.9704 20.2846 31.908 20.7913 31.4013L22.724 29.4685C23.4905 28.702 23.8342 27.7025 23.7978 26.7324C23.7891 26.5032 23.7268 26.2792 23.6161 26.0783C23.5054 25.8774 23.3492 25.7051 23.1601 25.5752C22.8928 25.3912 22.5506 25.1277 22.2109 24.7886C19.6338 22.2116 19.623 18.0288 22.2109 15.441L28.3796 9.27316C30.9719 6.68092 35.2001 6.69652 37.7727 9.31998C40.3201 11.9178 40.2395 16.1069 37.6667 18.6796L36.4654 19.8809C36.066 20.2802 35.9358 20.8714 36.1181 21.4058C36.6564 22.9842 36.9481 24.6186 37.0076 26.2455C37.0543 27.522 38.6098 28.1223 39.5131 27.2191L42.9193 23.8128C48.3602 18.3731 48.3602 9.52019 42.9194 4.08032Z" fill="black"/>
</svg>
