<svg width="61" height="61" viewBox="0 0 61 61" fill="none" xmlns="http://www.w3.org/2000/svg">
<path d="M56.6429 0H4.34353C1.9471 0 0 1.97433 0 4.39799V56.602C0 59.0257 1.9471 61 4.34353 61H56.6429C59.0393 61 61 59.0257 61 56.602V4.39799C61 1.97433 59.0393 0 56.6429 0ZM18.4362 52.2857H9.39509V23.1746H18.4498V52.2857H18.4362ZM13.9156 19.1987C11.0154 19.1987 8.67344 16.8431 8.67344 13.9565C8.67344 11.0699 11.0154 8.71429 13.9156 8.71429C16.8022 8.71429 19.1578 11.0699 19.1578 13.9565C19.1578 16.8567 16.8158 19.1987 13.9156 19.1987ZM52.3266 52.2857H43.2855V38.125C43.2855 34.7482 43.2174 30.4047 38.5879 30.4047C33.8768 30.4047 33.1551 34.081 33.1551 37.8799V52.2857H24.1141V23.1746H32.7875V27.1504H32.91C34.1219 24.8629 37.0766 22.4529 41.4746 22.4529C50.6246 22.4529 52.3266 28.4848 52.3266 36.3277V52.2857Z" fill="white"/>
</svg>
