<svg width="64" height="64" viewBox="0 0 64 64" fill="none" xmlns="http://www.w3.org/2000/svg">
<rect x="0.5" y="0.5" width="63" height="63" rx="3.5" stroke="white"/>
<path d="M6.34766 49.4688H7.44336L10.2383 56.4238L13.0273 49.4688H14.1289L10.6602 58H9.80469L6.34766 49.4688ZM5.99023 49.4688H6.95703L7.11523 54.6719V58H5.99023V49.4688ZM13.5137 49.4688H14.4805V58H13.3555V54.6719L13.5137 49.4688ZM16.0156 54.9004V54.7656C16.0156 54.3086 16.082 53.8848 16.2148 53.4941C16.3477 53.0996 16.5391 52.7578 16.7891 52.4688C17.0391 52.1758 17.3418 51.9492 17.6973 51.7891C18.0527 51.625 18.4512 51.543 18.8926 51.543C19.3379 51.543 19.7383 51.625 20.0938 51.7891C20.4531 51.9492 20.7578 52.1758 21.0078 52.4688C21.2617 52.7578 21.4551 53.0996 21.5879 53.4941C21.7207 53.8848 21.7871 54.3086 21.7871 54.7656V54.9004C21.7871 55.3574 21.7207 55.7812 21.5879 56.1719C21.4551 56.5625 21.2617 56.9043 21.0078 57.1973C20.7578 57.4863 20.4551 57.7129 20.0996 57.877C19.748 58.0371 19.3496 58.1172 18.9043 58.1172C18.459 58.1172 18.0586 58.0371 17.7031 57.877C17.3477 57.7129 17.043 57.4863 16.7891 57.1973C16.5391 56.9043 16.3477 56.5625 16.2148 56.1719C16.082 55.7812 16.0156 55.3574 16.0156 54.9004ZM17.0996 54.7656V54.9004C17.0996 55.2168 17.1367 55.5156 17.2109 55.7969C17.2852 56.0742 17.3965 56.3203 17.5449 56.5352C17.6973 56.75 17.8867 56.9199 18.1133 57.0449C18.3398 57.166 18.6035 57.2266 18.9043 57.2266C19.2012 57.2266 19.4609 57.166 19.6836 57.0449C19.9102 56.9199 20.0977 56.75 20.2461 56.5352C20.3945 56.3203 20.5059 56.0742 20.5801 55.7969C20.6582 55.5156 20.6973 55.2168 20.6973 54.9004V54.7656C20.6973 54.4531 20.6582 54.1582 20.5801 53.8809C20.5059 53.5996 20.3926 53.3516 20.2402 53.1367C20.0918 52.918 19.9043 52.7461 19.6777 52.6211C19.4551 52.4961 19.1934 52.4336 18.8926 52.4336C18.5957 52.4336 18.334 52.4961 18.1074 52.6211C17.8848 52.7461 17.6973 52.918 17.5449 53.1367C17.3965 53.3516 17.2852 53.5996 17.2109 53.8809C17.1367 54.1582 17.0996 54.4531 17.0996 54.7656ZM24.2305 53.0137V58H23.1465V51.6602H24.1719L24.2305 53.0137ZM23.9727 54.5898L23.5215 54.5723C23.5254 54.1387 23.5898 53.7383 23.7148 53.3711C23.8398 53 24.0156 52.6777 24.2422 52.4043C24.4688 52.1309 24.7383 51.9199 25.0508 51.7715C25.3672 51.6191 25.7168 51.543 26.0996 51.543C26.4121 51.543 26.6934 51.5859 26.9434 51.6719C27.1934 51.7539 27.4062 51.8867 27.582 52.0703C27.7617 52.2539 27.8984 52.4922 27.9922 52.7852C28.0859 53.0742 28.1328 53.4277 28.1328 53.8457V58H27.043V53.834C27.043 53.502 26.9941 53.2363 26.8965 53.0371C26.7988 52.834 26.6562 52.6875 26.4688 52.5977C26.2812 52.5039 26.0508 52.457 25.7773 52.457C25.5078 52.457 25.2617 52.5137 25.0391 52.627C24.8203 52.7402 24.6309 52.8965 24.4707 53.0957C24.3145 53.2949 24.1914 53.5234 24.1016 53.7812C24.0156 54.0352 23.9727 54.3047 23.9727 54.5898ZM33.8867 51.6602H34.8711V57.8652C34.8711 58.4238 34.7578 58.9004 34.5312 59.2949C34.3047 59.6895 33.9883 59.9883 33.582 60.1914C33.1797 60.3984 32.7148 60.502 32.1875 60.502C31.9688 60.502 31.7109 60.4668 31.4141 60.3965C31.1211 60.3301 30.832 60.2148 30.5469 60.0508C30.2656 59.8906 30.0293 59.6738 29.8379 59.4004L30.4062 58.7559C30.6719 59.0762 30.9492 59.2988 31.2383 59.4238C31.5312 59.5488 31.8203 59.6113 32.1055 59.6113C32.4492 59.6113 32.7461 59.5469 32.9961 59.418C33.2461 59.2891 33.4395 59.0977 33.5762 58.8438C33.7168 58.5938 33.7871 58.2852 33.7871 57.918V53.0547L33.8867 51.6602ZM29.5215 54.9004V54.7773C29.5215 54.293 29.5781 53.8535 29.6914 53.459C29.8086 53.0605 29.9746 52.7188 30.1895 52.4336C30.4082 52.1484 30.6719 51.9297 30.9805 51.7773C31.2891 51.6211 31.6367 51.543 32.0234 51.543C32.4219 51.543 32.7695 51.6133 33.0664 51.7539C33.3672 51.8906 33.6211 52.0918 33.8281 52.3574C34.0391 52.6191 34.2051 52.9355 34.3262 53.3066C34.4473 53.6777 34.5312 54.0977 34.5781 54.5664V55.1055C34.5352 55.5703 34.4512 55.9883 34.3262 56.3594C34.2051 56.7305 34.0391 57.0469 33.8281 57.3086C33.6211 57.5703 33.3672 57.7715 33.0664 57.9121C32.7656 58.0488 32.4141 58.1172 32.0117 58.1172C31.6328 58.1172 31.2891 58.0371 30.9805 57.877C30.6758 57.7168 30.4141 57.4922 30.1953 57.2031C29.9766 56.9141 29.8086 56.5742 29.6914 56.1836C29.5781 55.7891 29.5215 55.3613 29.5215 54.9004ZM30.6055 54.7773V54.9004C30.6055 55.2168 30.6367 55.5137 30.6992 55.791C30.7656 56.0684 30.8652 56.3125 30.998 56.5234C31.1348 56.7344 31.3086 56.9004 31.5195 57.0215C31.7305 57.1387 31.9824 57.1973 32.2754 57.1973C32.6348 57.1973 32.9316 57.1211 33.166 56.9688C33.4004 56.8164 33.5859 56.6152 33.7227 56.3652C33.8633 56.1152 33.9727 55.8438 34.0508 55.5508V54.1387C34.0078 53.9238 33.9414 53.7168 33.8516 53.5176C33.7656 53.3145 33.6523 53.1348 33.5117 52.9785C33.375 52.8184 33.2051 52.6914 33.002 52.5977C32.7988 52.5039 32.5605 52.457 32.2871 52.457C31.9902 52.457 31.7344 52.5195 31.5195 52.6445C31.3086 52.7656 31.1348 52.9336 30.998 53.1484C30.8652 53.3594 30.7656 53.6055 30.6992 53.8867C30.6367 54.1641 30.6055 54.4609 30.6055 54.7773ZM36.2305 54.9004V54.7656C36.2305 54.3086 36.2969 53.8848 36.4297 53.4941C36.5625 53.0996 36.7539 52.7578 37.0039 52.4688C37.2539 52.1758 37.5566 51.9492 37.9121 51.7891C38.2676 51.625 38.666 51.543 39.1074 51.543C39.5527 51.543 39.9531 51.625 40.3086 51.7891C40.668 51.9492 40.9727 52.1758 41.2227 52.4688C41.4766 52.7578 41.6699 53.0996 41.8027 53.4941C41.9355 53.8848 42.002 54.3086 42.002 54.7656V54.9004C42.002 55.3574 41.9355 55.7812 41.8027 56.1719C41.6699 56.5625 41.4766 56.9043 41.2227 57.1973C40.9727 57.4863 40.6699 57.7129 40.3145 57.877C39.9629 58.0371 39.5645 58.1172 39.1191 58.1172C38.6738 58.1172 38.2734 58.0371 37.918 57.877C37.5625 57.7129 37.2578 57.4863 37.0039 57.1973C36.7539 56.9043 36.5625 56.5625 36.4297 56.1719C36.2969 55.7812 36.2305 55.3574 36.2305 54.9004ZM37.3145 54.7656V54.9004C37.3145 55.2168 37.3516 55.5156 37.4258 55.7969C37.5 56.0742 37.6113 56.3203 37.7598 56.5352C37.9121 56.75 38.1016 56.9199 38.3281 57.0449C38.5547 57.166 38.8184 57.2266 39.1191 57.2266C39.416 57.2266 39.6758 57.166 39.8984 57.0449C40.125 56.9199 40.3125 56.75 40.4609 56.5352C40.6094 56.3203 40.7207 56.0742 40.7949 55.7969C40.873 55.5156 40.9121 55.2168 40.9121 54.9004V54.7656C40.9121 54.4531 40.873 54.1582 40.7949 53.8809C40.7207 53.5996 40.6074 53.3516 40.4551 53.1367C40.3066 52.918 40.1191 52.7461 39.8926 52.6211C39.6699 52.4961 39.4082 52.4336 39.1074 52.4336C38.8105 52.4336 38.5488 52.4961 38.3223 52.6211C38.0996 52.7461 37.9121 52.918 37.7598 53.1367C37.6113 53.3516 37.5 53.5996 37.4258 53.8809C37.3516 54.1582 37.3145 54.4531 37.3145 54.7656ZM45.834 58H44.0527L44.0645 57.0801H45.834C46.4434 57.0801 46.9512 56.9531 47.3574 56.6992C47.7637 56.4414 48.0684 56.082 48.2715 55.6211C48.4785 55.1562 48.582 54.6133 48.582 53.9922V53.4707C48.582 52.9824 48.5234 52.5488 48.4062 52.1699C48.2891 51.7871 48.1172 51.4648 47.8906 51.2031C47.6641 50.9375 47.3867 50.7363 47.0586 50.5996C46.7344 50.4629 46.3613 50.3945 45.9395 50.3945H44.0176V49.4688H45.9395C46.498 49.4688 47.0078 49.5625 47.4688 49.75C47.9297 49.9336 48.3262 50.2012 48.6582 50.5527C48.9941 50.9004 49.252 51.3223 49.4316 51.8184C49.6113 52.3105 49.7012 52.8652 49.7012 53.4824V53.9922C49.7012 54.6094 49.6113 55.166 49.4316 55.6621C49.252 56.1543 48.9922 56.5742 48.6523 56.9219C48.3164 57.2695 47.9102 57.5371 47.4336 57.7246C46.9609 57.9082 46.4277 58 45.834 58ZM44.6562 49.4688V58H43.5254V49.4688H44.6562ZM54.4414 54.0098H52.2793L52.2676 53.1016H54.2305C54.5547 53.1016 54.8379 53.0469 55.0801 52.9375C55.3223 52.8281 55.5098 52.6719 55.6426 52.4688C55.7793 52.2617 55.8477 52.0156 55.8477 51.7305C55.8477 51.418 55.7871 51.1641 55.666 50.9688C55.5488 50.7695 55.3672 50.625 55.1211 50.5352C54.8789 50.4414 54.5703 50.3945 54.1953 50.3945H52.5312V58H51.4004V49.4688H54.1953C54.6328 49.4688 55.0234 49.5137 55.3672 49.6035C55.7109 49.6895 56.002 49.8262 56.2402 50.0137C56.4824 50.1973 56.666 50.4316 56.791 50.7168C56.916 51.002 56.9785 51.3438 56.9785 51.7422C56.9785 52.0938 56.8887 52.4121 56.709 52.6973C56.5293 52.9785 56.2793 53.209 55.959 53.3887C55.6426 53.5684 55.2715 53.6836 54.8457 53.7344L54.4414 54.0098ZM54.3887 58H51.834L52.4727 57.0801H54.3887C54.748 57.0801 55.0527 57.0176 55.3027 56.8926C55.5566 56.7676 55.75 56.5918 55.8828 56.3652C56.0156 56.1348 56.082 55.8633 56.082 55.5508C56.082 55.2344 56.0254 54.9609 55.9121 54.7305C55.7988 54.5 55.6211 54.3223 55.3789 54.1973C55.1367 54.0723 54.8242 54.0098 54.4414 54.0098H52.8301L52.8418 53.1016H55.0449L55.2852 53.4297C55.6953 53.4648 56.043 53.582 56.3281 53.7812C56.6133 53.9766 56.8301 54.2266 56.9785 54.5312C57.1309 54.8359 57.207 55.1719 57.207 55.5391C57.207 56.0703 57.0898 56.5195 56.8555 56.8867C56.625 57.25 56.2988 57.5273 55.877 57.7188C55.4551 57.9062 54.959 58 54.3887 58Z" fill="white"/>
<path d="M33.4882 25.0062C32.7691 24.1099 32.1499 23.1996 32.0234 23.0105C32.0101 22.9965 31.9901 22.9965 31.9768 23.0105C31.8503 23.1996 31.2311 24.1099 30.512 25.0062C24.3399 33.2762 31.4841 38.8572 31.4841 38.8572L31.544 38.8993C31.5973 39.7605 31.7304 41 31.7304 41H31.9968H32.2631C32.2631 41 32.3962 39.7675 32.4495 38.8993L32.5094 38.8502C32.5161 38.8572 39.6603 33.2762 33.4882 25.0062ZM31.9968 38.7312C31.9968 38.7312 31.6772 38.4441 31.5906 38.2971V38.283L31.9768 29.2778C31.9768 29.2498 32.0167 29.2498 32.0167 29.2778L32.4029 38.283V38.2971C32.3163 38.4441 31.9968 38.7312 31.9968 38.7312Z" fill="#036C03"/>
</svg>
