<svg width="64" height="64" viewBox="0 0 64 64" fill="none" xmlns="http://www.w3.org/2000/svg">
<rect x="0.5" y="0.5" width="63" height="63" rx="3.5" stroke="white"/>
<path d="M18.5527 49.4688V58H17.416L13.1211 51.4199V58H11.9902V49.4688H13.1211L17.4336 56.0664V49.4688H18.5527ZM20.1055 54.9004V54.7656C20.1055 54.3086 20.1719 53.8848 20.3047 53.4941C20.4375 53.0996 20.6289 52.7578 20.8789 52.4688C21.1289 52.1758 21.4316 51.9492 21.7871 51.7891C22.1426 51.625 22.541 51.543 22.9824 51.543C23.4277 51.543 23.8281 51.625 24.1836 51.7891C24.543 51.9492 24.8477 52.1758 25.0977 52.4688C25.3516 52.7578 25.5449 53.0996 25.6777 53.4941C25.8105 53.8848 25.877 54.3086 25.877 54.7656V54.9004C25.877 55.3574 25.8105 55.7812 25.6777 56.1719C25.5449 56.5625 25.3516 56.9043 25.0977 57.1973C24.8477 57.4863 24.5449 57.7129 24.1895 57.877C23.8379 58.0371 23.4395 58.1172 22.9941 58.1172C22.5488 58.1172 22.1484 58.0371 21.793 57.877C21.4375 57.7129 21.1328 57.4863 20.8789 57.1973C20.6289 56.9043 20.4375 56.5625 20.3047 56.1719C20.1719 55.7812 20.1055 55.3574 20.1055 54.9004ZM21.1895 54.7656V54.9004C21.1895 55.2168 21.2266 55.5156 21.3008 55.7969C21.375 56.0742 21.4863 56.3203 21.6348 56.5352C21.7871 56.75 21.9766 56.9199 22.2031 57.0449C22.4297 57.166 22.6934 57.2266 22.9941 57.2266C23.291 57.2266 23.5508 57.166 23.7734 57.0449C24 56.9199 24.1875 56.75 24.3359 56.5352C24.4844 56.3203 24.5957 56.0742 24.6699 55.7969C24.748 55.5156 24.7871 55.2168 24.7871 54.9004V54.7656C24.7871 54.4531 24.748 54.1582 24.6699 53.8809C24.5957 53.5996 24.4824 53.3516 24.3301 53.1367C24.1816 52.918 23.9941 52.7461 23.7676 52.6211C23.5449 52.4961 23.2832 52.4336 22.9824 52.4336C22.6855 52.4336 22.4238 52.4961 22.1973 52.6211C21.9746 52.7461 21.7871 52.918 21.6348 53.1367C21.4863 53.3516 21.375 53.5996 21.3008 53.8809C21.2266 54.1582 21.1895 54.4531 21.1895 54.7656ZM31.2324 56.7695V49H32.3223V58H31.3262L31.2324 56.7695ZM26.9668 54.9004V54.7773C26.9668 54.293 27.0254 53.8535 27.1426 53.459C27.2637 53.0605 27.4336 52.7188 27.6523 52.4336C27.875 52.1484 28.1387 51.9297 28.4434 51.7773C28.752 51.6211 29.0957 51.543 29.4746 51.543C29.873 51.543 30.2207 51.6133 30.5176 51.7539C30.8184 51.8906 31.0723 52.0918 31.2793 52.3574C31.4902 52.6191 31.6562 52.9355 31.7773 53.3066C31.8984 53.6777 31.9824 54.0977 32.0293 54.5664V55.1055C31.9863 55.5703 31.9023 55.9883 31.7773 56.3594C31.6562 56.7305 31.4902 57.0469 31.2793 57.3086C31.0723 57.5703 30.8184 57.7715 30.5176 57.9121C30.2168 58.0488 29.8652 58.1172 29.4629 58.1172C29.0918 58.1172 28.752 58.0371 28.4434 57.877C28.1387 57.7168 27.875 57.4922 27.6523 57.2031C27.4336 56.9141 27.2637 56.5742 27.1426 56.1836C27.0254 55.7891 26.9668 55.3613 26.9668 54.9004ZM28.0566 54.7773V54.9004C28.0566 55.2168 28.0879 55.5137 28.1504 55.791C28.2168 56.0684 28.3184 56.3125 28.4551 56.5234C28.5918 56.7344 28.7656 56.9004 28.9766 57.0215C29.1875 57.1387 29.4395 57.1973 29.7324 57.1973C30.0918 57.1973 30.3867 57.1211 30.6172 56.9688C30.8516 56.8164 31.0391 56.6152 31.1797 56.3652C31.3203 56.1152 31.4297 55.8438 31.5078 55.5508V54.1387C31.4609 53.9238 31.3926 53.7168 31.3027 53.5176C31.2168 53.3145 31.1035 53.1348 30.9629 52.9785C30.8262 52.8184 30.6562 52.6914 30.4531 52.5977C30.2539 52.5039 30.0176 52.457 29.7441 52.457C29.4473 52.457 29.1914 52.5195 28.9766 52.6445C28.7656 52.7656 28.5918 52.9336 28.4551 53.1484C28.3184 53.3594 28.2168 53.6055 28.1504 53.8867C28.0879 54.1641 28.0566 54.4609 28.0566 54.7773ZM36.6406 58.1172C36.1992 58.1172 35.7988 58.043 35.4395 57.8945C35.084 57.7422 34.7773 57.5293 34.5195 57.2559C34.2656 56.9824 34.0703 56.6582 33.9336 56.2832C33.7969 55.9082 33.7285 55.498 33.7285 55.0527V54.8066C33.7285 54.291 33.8047 53.832 33.957 53.4297C34.1094 53.0234 34.3164 52.6797 34.5781 52.3984C34.8398 52.1172 35.1367 51.9043 35.4688 51.7598C35.8008 51.6152 36.1445 51.543 36.5 51.543C36.9531 51.543 37.3438 51.6211 37.6719 51.7773C38.0039 51.9336 38.2754 52.1523 38.4863 52.4336C38.6973 52.7109 38.8535 53.0391 38.9551 53.418C39.0566 53.793 39.1074 54.2031 39.1074 54.6484V55.1348H34.373V54.25H38.0234V54.168C38.0078 53.8867 37.9492 53.6133 37.8477 53.3477C37.75 53.082 37.5938 52.8633 37.3789 52.6914C37.1641 52.5195 36.8711 52.4336 36.5 52.4336C36.2539 52.4336 36.0273 52.4863 35.8203 52.5918C35.6133 52.6934 35.4355 52.8457 35.2871 53.0488C35.1387 53.252 35.0234 53.5 34.9414 53.793C34.8594 54.0859 34.8184 54.4238 34.8184 54.8066V55.0527C34.8184 55.3535 34.8594 55.6367 34.9414 55.9023C35.0273 56.1641 35.1504 56.3945 35.3105 56.5938C35.4746 56.793 35.6719 56.9492 35.9023 57.0625C36.1367 57.1758 36.4023 57.2324 36.6992 57.2324C37.082 57.2324 37.4062 57.1543 37.6719 56.998C37.9375 56.8418 38.1699 56.6328 38.3691 56.3711L39.0254 56.8926C38.8887 57.0996 38.7148 57.2969 38.5039 57.4844C38.293 57.6719 38.0332 57.8242 37.7246 57.9414C37.4199 58.0586 37.0586 58.1172 36.6406 58.1172ZM44.1172 55.5098V49.4688H45.2422V55.5098C45.2422 56.0723 45.127 56.5469 44.8965 56.9336C44.666 57.3203 44.3477 57.6152 43.9414 57.8184C43.5391 58.0176 43.0762 58.1172 42.5527 58.1172C42.0293 58.1172 41.5645 58.0273 41.1582 57.8477C40.752 57.668 40.4336 57.3945 40.2031 57.0273C39.9727 56.6602 39.8574 56.1973 39.8574 55.6387H40.9883C40.9883 55.998 41.0547 56.293 41.1875 56.5234C41.3203 56.7539 41.5039 56.9238 41.7383 57.0332C41.9766 57.1426 42.248 57.1973 42.5527 57.1973C42.8496 57.1973 43.1152 57.1348 43.3496 57.0098C43.5879 56.8809 43.7754 56.6914 43.9121 56.4414C44.0488 56.1875 44.1172 55.877 44.1172 55.5098ZM50.6855 56.3184C50.6855 56.1621 50.6504 56.0176 50.5801 55.8848C50.5137 55.748 50.375 55.625 50.1641 55.5156C49.957 55.4023 49.6445 55.3047 49.2266 55.2227C48.875 55.1484 48.5566 55.0605 48.2715 54.959C47.9902 54.8574 47.75 54.7344 47.5508 54.5898C47.3555 54.4453 47.2051 54.2754 47.0996 54.0801C46.9941 53.8848 46.9414 53.6562 46.9414 53.3945C46.9414 53.1445 46.9961 52.9082 47.1055 52.6855C47.2188 52.4629 47.377 52.2656 47.5801 52.0938C47.7871 51.9219 48.0352 51.7871 48.3242 51.6895C48.6133 51.5918 48.9355 51.543 49.291 51.543C49.7988 51.543 50.2324 51.6328 50.5918 51.8125C50.9512 51.9922 51.2266 52.2324 51.418 52.5332C51.6094 52.8301 51.7051 53.1602 51.7051 53.5234H50.6211C50.6211 53.3477 50.5684 53.1777 50.4629 53.0137C50.3613 52.8457 50.2109 52.707 50.0117 52.5977C49.8164 52.4883 49.5762 52.4336 49.291 52.4336C48.9902 52.4336 48.7461 52.4805 48.5586 52.5742C48.375 52.6641 48.2402 52.7793 48.1543 52.9199C48.0723 53.0605 48.0312 53.209 48.0312 53.3652C48.0312 53.4824 48.0508 53.5879 48.0898 53.6816C48.1328 53.7715 48.207 53.8555 48.3125 53.9336C48.418 54.0078 48.5664 54.0781 48.7578 54.1445C48.9492 54.2109 49.1934 54.2773 49.4902 54.3438C50.0098 54.4609 50.4375 54.6016 50.7734 54.7656C51.1094 54.9297 51.3594 55.1309 51.5234 55.3691C51.6875 55.6074 51.7695 55.8965 51.7695 56.2363C51.7695 56.5137 51.7109 56.7676 51.5938 56.998C51.4805 57.2285 51.3145 57.4277 51.0957 57.5957C50.8809 57.7598 50.623 57.8887 50.3223 57.9824C50.0254 58.0723 49.6914 58.1172 49.3203 58.1172C48.7617 58.1172 48.2891 58.0176 47.9023 57.8184C47.5156 57.6191 47.2227 57.3613 47.0234 57.0449C46.8242 56.7285 46.7246 56.3945 46.7246 56.043H47.8145C47.8301 56.3398 47.916 56.5762 48.0723 56.752C48.2285 56.9238 48.4199 57.0469 48.6465 57.1211C48.873 57.1914 49.0977 57.2266 49.3203 57.2266C49.6172 57.2266 49.8652 57.1875 50.0645 57.1094C50.2676 57.0312 50.4219 56.9238 50.5273 56.7871C50.6328 56.6504 50.6855 56.4941 50.6855 56.3184Z" fill="white"/>
<path d="M31.4966 40.9186C31.2717 40.9186 31.0434 40.8582 30.8453 40.7441L28.7739 39.5187C28.4651 39.3441 28.6162 39.2837 28.7169 39.2501C29.1298 39.1058 29.2137 39.0755 29.6535 38.8237C29.7005 38.7969 29.761 38.807 29.808 38.8372L31.3993 39.7806C31.4564 39.8141 31.5369 39.8141 31.5906 39.7806L37.7914 36.2018C37.8485 36.1682 37.8854 36.1011 37.8854 36.0339V28.8763C37.8854 28.8058 37.8485 28.7421 37.788 28.7051L31.5906 25.1297C31.5336 25.0961 31.4564 25.0961 31.3993 25.1297L25.2052 28.7085C25.1448 28.7421 25.1079 28.8092 25.1079 28.8797V36.0339C25.1079 36.1011 25.1448 36.1682 25.2052 36.1984L26.904 37.1787C27.8272 37.6387 28.3912 37.0981 28.3912 36.5509V29.4874C28.3912 29.3866 28.4718 29.3094 28.5725 29.3094H29.3581C29.4555 29.3094 29.5394 29.3866 29.5394 29.4874V36.5543C29.5394 37.783 28.868 38.488 27.703 38.488C27.3438 38.488 27.0618 38.488 26.2762 38.0986L24.6513 37.1619C24.2484 36.9303 24 36.4972 24 36.0306V28.8763C24 28.413 24.2484 27.9766 24.6513 27.745L30.8453 24.1662C31.2381 23.9446 31.7585 23.9446 32.1479 24.1662L38.3487 27.7483C38.7516 27.98 39 28.413 39 28.8797V36.0339C39 36.4972 38.7516 36.9303 38.3487 37.1653L32.1479 40.7441C31.9499 40.8582 31.7249 40.9186 31.4966 40.9186ZM36.5022 33.8652C36.5022 32.5256 35.5958 32.1698 33.6923 31.918C31.7652 31.6628 31.5705 31.5319 31.5705 31.082C31.5705 30.7094 31.735 30.2125 33.1618 30.2125C34.4342 30.2125 34.9042 30.4878 35.0989 31.3472C35.1157 31.4278 35.1896 31.4882 35.2735 31.4882H36.0792C36.1296 31.4882 36.1766 31.4681 36.2102 31.4312C36.2437 31.3942 36.2605 31.3439 36.2572 31.2935C36.1329 29.813 35.1493 29.1248 33.1618 29.1248C31.3926 29.1248 30.3384 29.8701 30.3384 31.1223C30.3384 32.4786 31.3892 32.8546 33.0846 33.0225C35.1157 33.2206 35.2735 33.5194 35.2735 33.9189C35.2735 34.6105 34.7162 34.9059 33.4103 34.9059C31.7686 34.9059 31.4094 34.4929 31.2885 33.6771C31.2751 33.5899 31.2012 33.5261 31.1106 33.5261H30.3082C30.2075 33.5261 30.1303 33.6066 30.1303 33.704C30.1303 34.7481 30.6976 35.9936 33.4136 35.9936C35.3742 35.9903 36.5022 35.2147 36.5022 33.8652Z" fill="#036C03"/>
</svg>
