<svg width="64" height="64" viewBox="0 0 64 64" fill="none" xmlns="http://www.w3.org/2000/svg">
<rect x="0.5" y="0.5" width="63" height="63" rx="3.5" stroke="white"/>
<path d="M17.1367 54.6543H14.8574V53.7344H17.1367C17.5781 53.7344 17.9355 53.6641 18.209 53.5234C18.4824 53.3828 18.6816 53.1875 18.8066 52.9375C18.9355 52.6875 19 52.4023 19 52.082C19 51.7891 18.9355 51.5137 18.8066 51.2559C18.6816 50.998 18.4824 50.791 18.209 50.6348C17.9355 50.4746 17.5781 50.3945 17.1367 50.3945H15.1211V58H13.9902V49.4688H17.1367C17.7812 49.4688 18.3262 49.5801 18.7715 49.8027C19.2168 50.0254 19.5547 50.334 19.7852 50.7285C20.0156 51.1191 20.1309 51.5664 20.1309 52.0703C20.1309 52.6172 20.0156 53.084 19.7852 53.4707C19.5547 53.8574 19.2168 54.1523 18.7715 54.3555C18.3262 54.5547 17.7812 54.6543 17.1367 54.6543ZM23.2715 57.3438L25.0352 51.6602H26.1953L23.6523 58.9785C23.5938 59.1348 23.5156 59.3027 23.418 59.4824C23.3242 59.666 23.2031 59.8398 23.0547 60.0039C22.9062 60.168 22.7266 60.3008 22.5156 60.4023C22.3086 60.5078 22.0605 60.5605 21.7715 60.5605C21.6855 60.5605 21.5762 60.5488 21.4434 60.5254C21.3105 60.502 21.2168 60.4824 21.1621 60.4668L21.1562 59.5879C21.1875 59.5918 21.2363 59.5957 21.3027 59.5996C21.373 59.6074 21.4219 59.6113 21.4492 59.6113C21.6953 59.6113 21.9043 59.5781 22.0762 59.5117C22.248 59.4492 22.3926 59.3418 22.5098 59.1895C22.6309 59.041 22.7344 58.8359 22.8203 58.5742L23.2715 57.3438ZM21.9766 51.6602L23.623 56.582L23.9043 57.7246L23.125 58.123L20.793 51.6602H21.9766ZM29.8281 51.6602V52.4922H26.4004V51.6602H29.8281ZM27.5605 50.1191H28.6445V56.4297C28.6445 56.6445 28.6777 56.8066 28.7441 56.916C28.8105 57.0254 28.8965 57.0977 29.002 57.1328C29.1074 57.168 29.2207 57.1855 29.3418 57.1855C29.4316 57.1855 29.5254 57.1777 29.623 57.1621C29.7246 57.1426 29.8008 57.127 29.8516 57.1152L29.8574 58C29.7715 58.0273 29.6582 58.0527 29.5176 58.0762C29.3809 58.1035 29.2148 58.1172 29.0195 58.1172C28.7539 58.1172 28.5098 58.0645 28.2871 57.959C28.0645 57.8535 27.8867 57.6777 27.7539 57.4316C27.625 57.1816 27.5605 56.8457 27.5605 56.4238V50.1191ZM32.1836 49V58H31.0996V49H32.1836ZM31.9258 54.5898L31.4746 54.5723C31.4785 54.1387 31.543 53.7383 31.668 53.3711C31.793 53 31.9688 52.6777 32.1953 52.4043C32.4219 52.1309 32.6914 51.9199 33.0039 51.7715C33.3203 51.6191 33.6699 51.543 34.0527 51.543C34.3652 51.543 34.6465 51.5859 34.8965 51.6719C35.1465 51.7539 35.3594 51.8867 35.5352 52.0703C35.7148 52.2539 35.8516 52.4922 35.9453 52.7852C36.0391 53.0742 36.0859 53.4277 36.0859 53.8457V58H34.9961V53.834C34.9961 53.502 34.9473 53.2363 34.8496 53.0371C34.752 52.834 34.6094 52.6875 34.4219 52.5977C34.2344 52.5039 34.0039 52.457 33.7305 52.457C33.4609 52.457 33.2148 52.5137 32.9922 52.627C32.7734 52.7402 32.584 52.8965 32.4238 53.0957C32.2676 53.2949 32.1445 53.5234 32.0547 53.7812C31.9688 54.0352 31.9258 54.3047 31.9258 54.5898ZM37.4219 54.9004V54.7656C37.4219 54.3086 37.4883 53.8848 37.6211 53.4941C37.7539 53.0996 37.9453 52.7578 38.1953 52.4688C38.4453 52.1758 38.748 51.9492 39.1035 51.7891C39.459 51.625 39.8574 51.543 40.2988 51.543C40.7441 51.543 41.1445 51.625 41.5 51.7891C41.8594 51.9492 42.1641 52.1758 42.4141 52.4688C42.668 52.7578 42.8613 53.0996 42.9941 53.4941C43.127 53.8848 43.1934 54.3086 43.1934 54.7656V54.9004C43.1934 55.3574 43.127 55.7812 42.9941 56.1719C42.8613 56.5625 42.668 56.9043 42.4141 57.1973C42.1641 57.4863 41.8613 57.7129 41.5059 57.877C41.1543 58.0371 40.7559 58.1172 40.3105 58.1172C39.8652 58.1172 39.4648 58.0371 39.1094 57.877C38.7539 57.7129 38.4492 57.4863 38.1953 57.1973C37.9453 56.9043 37.7539 56.5625 37.6211 56.1719C37.4883 55.7812 37.4219 55.3574 37.4219 54.9004ZM38.5059 54.7656V54.9004C38.5059 55.2168 38.543 55.5156 38.6172 55.7969C38.6914 56.0742 38.8027 56.3203 38.9512 56.5352C39.1035 56.75 39.293 56.9199 39.5195 57.0449C39.7461 57.166 40.0098 57.2266 40.3105 57.2266C40.6074 57.2266 40.8672 57.166 41.0898 57.0449C41.3164 56.9199 41.5039 56.75 41.6523 56.5352C41.8008 56.3203 41.9121 56.0742 41.9863 55.7969C42.0645 55.5156 42.1035 55.2168 42.1035 54.9004V54.7656C42.1035 54.4531 42.0645 54.1582 41.9863 53.8809C41.9121 53.5996 41.7988 53.3516 41.6465 53.1367C41.498 52.918 41.3105 52.7461 41.084 52.6211C40.8613 52.4961 40.5996 52.4336 40.2988 52.4336C40.002 52.4336 39.7402 52.4961 39.5137 52.6211C39.291 52.7461 39.1035 52.918 38.9512 53.1367C38.8027 53.3516 38.6914 53.5996 38.6172 53.8809C38.543 54.1582 38.5059 54.4531 38.5059 54.7656ZM45.6367 53.0137V58H44.5527V51.6602H45.5781L45.6367 53.0137ZM45.3789 54.5898L44.9277 54.5723C44.9316 54.1387 44.9961 53.7383 45.1211 53.3711C45.2461 53 45.4219 52.6777 45.6484 52.4043C45.875 52.1309 46.1445 51.9199 46.457 51.7715C46.7734 51.6191 47.123 51.543 47.5059 51.543C47.8184 51.543 48.0996 51.5859 48.3496 51.6719C48.5996 51.7539 48.8125 51.8867 48.9883 52.0703C49.168 52.2539 49.3047 52.4922 49.3984 52.7852C49.4922 53.0742 49.5391 53.4277 49.5391 53.8457V58H48.4492V53.834C48.4492 53.502 48.4004 53.2363 48.3027 53.0371C48.2051 52.834 48.0625 52.6875 47.875 52.5977C47.6875 52.5039 47.457 52.457 47.1836 52.457C46.9141 52.457 46.668 52.5137 46.4453 52.627C46.2266 52.7402 46.0371 52.8965 45.877 53.0957C45.7207 53.2949 45.5977 53.5234 45.5078 53.7812C45.4219 54.0352 45.3789 54.3047 45.3789 54.5898Z" fill="white"/>
<path d="M31.4459 25C27.638 25 27.8758 26.6513 27.8758 26.6513L27.88 28.3621H31.5138V28.8758H26.4367C26.4367 28.8758 24 28.5994 24 32.4417C24 36.2839 26.1268 36.1477 26.1268 36.1477H27.3961V34.3647C27.3961 34.3647 27.3277 32.2379 29.4889 32.2379H33.093C33.093 32.2379 35.118 32.2707 35.118 30.2809V26.991C35.118 26.991 35.4254 25 31.4459 25ZM29.4422 26.1504C29.8038 26.1504 30.096 26.4426 30.096 26.8042C30.096 27.1657 29.8038 27.4579 29.4422 27.4579C29.0807 27.4579 28.7885 27.1657 28.7885 26.8042C28.7885 26.4426 29.0807 26.1504 29.4422 26.1504Z" fill="url(#paint0_linear_9_36)"/>
<path d="M31.5541 39.9219C35.362 39.9219 35.1242 38.2705 35.1242 38.2705L35.12 36.5598H31.4862V36.0461H36.5633C36.5633 36.0461 39 36.3224 39 32.4802C39 28.638 36.8732 28.7742 36.8732 28.7742H35.6039V30.5572C35.6039 30.5572 35.6723 32.684 33.5111 32.684H29.907C29.907 32.684 27.8821 32.6512 27.8821 34.641V37.9309C27.8821 37.9309 27.5746 39.9219 31.5541 39.9219ZM33.5578 38.7715C33.1962 38.7715 32.904 38.4793 32.904 38.1177C32.904 37.7562 33.1962 37.464 33.5578 37.464C33.9193 37.464 34.2115 37.7562 34.2115 38.1177C34.2115 38.4793 33.9193 38.7715 33.5578 38.7715Z" fill="url(#paint1_linear_9_36)"/>
<defs>
<linearGradient id="paint0_linear_9_36" x1="25.4415" y1="26.3422" x2="32.875" y2="33.7015" gradientUnits="userSpaceOnUse">
<stop stop-color="#387EB8"/>
<stop offset="1" stop-color="#366994"/>
</linearGradient>
<linearGradient id="paint1_linear_9_36" x1="30.0042" y1="31.0678" x2="37.9869" y2="38.6142" gradientUnits="userSpaceOnUse">
<stop stop-color="#FFE052"/>
<stop offset="1" stop-color="#FFC331"/>
</linearGradient>
</defs>
</svg>
