<svg width="64" height="64" viewBox="0 0 64 64" fill="none" xmlns="http://www.w3.org/2000/svg">
<path d="M36.252 29.2128C36.0938 29.1606 35.9355 29.1112 35.7773 29.0648C35.8037 28.9575 35.8271 28.8501 35.8506 28.7427C36.2109 27.0134 35.9736 25.6235 35.1738 25.165C34.4033 24.7269 33.1465 25.1824 31.875 26.2793C31.749 26.3866 31.626 26.4998 31.5088 26.6129C31.4297 26.5375 31.3477 26.4621 31.2656 26.3895C29.9326 25.2173 28.5967 24.724 27.7969 25.1853C27.0293 25.6264 26.8008 26.935 27.123 28.5715C27.1553 28.734 27.1904 28.8936 27.2314 29.0561C27.0439 29.1083 26.8594 29.1664 26.6865 29.2273C25.1221 29.7641 24 30.6114 24 31.4877C24 32.393 25.1953 33.3012 26.8213 33.8525C26.9531 33.896 27.085 33.9396 27.2197 33.9773C27.1758 34.1514 27.1377 34.3226 27.1025 34.4996C26.7949 36.11 27.0352 37.3867 27.8027 37.8248C28.5938 38.2775 29.9238 37.8132 31.2188 36.6903C31.3213 36.6004 31.4238 36.5075 31.5264 36.4088C31.6553 36.5336 31.79 36.6526 31.9248 36.7687C33.1787 37.8365 34.418 38.2688 35.1826 37.8306C35.9736 37.378 36.2314 36.0055 35.8975 34.3342C35.8711 34.2065 35.8418 34.0759 35.8096 33.9425C35.9033 33.9163 35.9941 33.8873 36.085 33.8583C37.7754 33.3041 39 32.4075 39 31.4877C39 30.6085 37.8457 29.7554 36.252 29.2128ZM32.2881 26.7493C33.3779 25.8092 34.3945 25.4407 34.8574 25.7047C35.3525 25.9862 35.543 27.1236 35.2324 28.618C35.2119 28.7166 35.1914 28.8124 35.165 28.9081C34.5146 28.7631 33.8555 28.6586 33.1934 28.6006C32.8125 28.0609 32.3965 27.5444 31.9453 27.0598C32.0596 26.9524 32.1709 26.8509 32.2881 26.7493ZM28.8984 32.9936C29.0479 33.2461 29.2002 33.4985 29.3613 33.7452C28.9043 33.6958 28.4502 33.6233 28.002 33.5275C28.1309 33.1097 28.292 32.6774 28.4795 32.2363C28.6143 32.4916 28.752 32.7441 28.8984 32.9936ZM28.0107 29.503C28.4326 29.4101 28.8809 29.3347 29.3467 29.2766C29.1914 29.5175 29.0391 29.7641 28.8955 30.0137C28.752 30.2603 28.6113 30.5127 28.4795 30.7681C28.2949 30.3357 28.1396 29.9121 28.0107 29.503ZM28.8135 31.5022C29.0068 31.1018 29.2178 30.71 29.4404 30.3241C29.6631 29.9382 29.9033 29.5639 30.1553 29.1954C30.5947 29.1635 31.043 29.1461 31.5 29.1461C31.957 29.1461 32.4082 29.1635 32.8447 29.1954C33.0938 29.561 33.3311 29.9353 33.5566 30.3183C33.7822 30.7013 33.9932 31.0931 34.1924 31.4906C33.9961 31.891 33.7852 32.2856 33.5596 32.6744C33.3369 33.0604 33.0996 33.4347 32.8506 33.8061C32.4141 33.838 31.96 33.8525 31.5 33.8525C31.04 33.8525 30.5947 33.838 30.1641 33.8119C29.9092 33.4434 29.6689 33.0662 29.4434 32.6803C29.2178 32.2943 29.0098 31.9026 28.8135 31.5022ZM34.1045 32.9878C34.2539 32.7325 34.3945 32.4742 34.5322 32.2131C34.7197 32.6338 34.8838 33.0604 35.0273 33.4985C34.5732 33.6001 34.1133 33.6784 33.6504 33.7306C33.8086 33.4869 33.958 33.2374 34.1045 32.9878ZM34.5264 30.7681C34.3887 30.5127 34.248 30.2574 34.1016 30.0079C33.958 29.7612 33.8086 29.5175 33.6533 29.2766C34.125 29.3347 34.5762 29.413 34.998 29.5088C34.8633 29.9382 34.7051 30.356 34.5264 30.7681ZM31.5059 27.5037C31.8135 27.8345 32.1035 28.1827 32.373 28.5425C31.793 28.5164 31.21 28.5164 30.6299 28.5425C30.917 28.1682 31.2129 27.82 31.5059 27.5037ZM28.1074 25.725C28.5996 25.4407 29.6924 25.8469 30.8438 26.8567C30.917 26.9205 30.9902 26.9902 31.0664 27.0598C30.6123 27.5444 30.1934 28.0609 29.8096 28.6006C29.1475 28.6586 28.4912 28.7602 27.8408 28.9023C27.8027 28.7543 27.7705 28.6035 27.7383 28.4526C27.4629 27.0482 27.6445 25.9891 28.1074 25.725ZM27.3896 33.3737C27.2666 33.3389 27.1465 33.3012 27.0264 33.2606C26.4023 33.0662 25.6934 32.7586 25.1807 32.3553C24.8848 32.1522 24.6855 31.8388 24.6299 31.4877C24.6299 30.9567 25.5557 30.2777 26.8916 29.8163C27.0586 29.7583 27.2285 29.7061 27.3984 29.6568C27.5977 30.2864 27.8379 30.9045 28.1162 31.5022C27.835 32.1086 27.5918 32.7354 27.3896 33.3737ZM30.8057 36.2173C30.3223 36.6555 29.7627 37.0037 29.1533 37.2416C28.8281 37.3954 28.4531 37.4099 28.1191 37.2793C27.6533 37.0124 27.46 35.9881 27.7236 34.6098C27.7559 34.4473 27.791 34.2849 27.832 34.1253C28.4883 34.2645 29.1504 34.3603 29.8213 34.4096C30.208 34.9522 30.6328 35.4716 31.0869 35.9591C30.9932 36.049 30.8994 36.1361 30.8057 36.2173ZM31.5234 35.5122C31.2246 35.1931 30.9258 34.8391 30.6357 34.459C30.917 34.4706 31.207 34.4764 31.5 34.4764C31.8018 34.4764 32.0977 34.4706 32.3906 34.4561C32.1211 34.8246 31.8311 35.1757 31.5234 35.5122ZM35.3525 36.3827C35.3262 36.7367 35.1504 37.0675 34.8691 37.2909C34.4033 37.5579 33.4102 37.2097 32.3379 36.2986C32.2148 36.1941 32.0918 36.081 31.9658 35.9649C32.4141 35.4745 32.8271 34.9551 33.2021 34.4096C33.873 34.3545 34.541 34.2529 35.2002 34.105C35.2295 34.2239 35.2559 34.3429 35.2793 34.459C35.4229 35.0857 35.4463 35.7386 35.3525 36.3827ZM35.8857 33.2635C35.8037 33.2896 35.7217 33.3157 35.6367 33.3389C35.4316 32.7064 35.1797 32.0883 34.8896 31.4877C35.1709 30.8958 35.4082 30.2864 35.6074 29.6626C35.7598 29.7061 35.9062 29.7525 36.0469 29.7989C37.4121 30.2632 38.3701 30.9538 38.3701 31.4819C38.3701 32.0506 37.3477 32.7847 35.8857 33.2635ZM31.5 32.8282C32.2412 32.8282 32.8418 32.2334 32.8418 31.4993C32.8418 30.7652 32.2412 30.1703 31.5 30.1703C30.7588 30.1703 30.1582 30.7652 30.1582 31.4993C30.1582 32.2334 30.7588 32.8282 31.5 32.8282Z" fill="#61DAFB"/>
<rect x="0.5" y="0.5" width="63" height="63" rx="3.5" stroke="white"/>
<path d="M10.9902 49.4688H13.8145C14.4551 49.4688 14.9961 49.5664 15.4375 49.7617C15.8828 49.957 16.2207 50.2461 16.4512 50.6289C16.6855 51.0078 16.8027 51.4746 16.8027 52.0293C16.8027 52.4199 16.7227 52.7773 16.5625 53.1016C16.4062 53.4219 16.1797 53.6953 15.8828 53.9219C15.5898 54.1445 15.2383 54.3105 14.8281 54.4199L14.5117 54.543H11.8574L11.8457 53.623H13.8496C14.2559 53.623 14.5938 53.5527 14.8633 53.4121C15.1328 53.2676 15.3359 53.0742 15.4727 52.832C15.6094 52.5898 15.6777 52.3223 15.6777 52.0293C15.6777 51.7012 15.6133 51.4141 15.4844 51.168C15.3555 50.9219 15.1523 50.7324 14.875 50.5996C14.6016 50.4629 14.248 50.3945 13.8145 50.3945H12.1211V58H10.9902V49.4688ZM15.9766 58L13.9023 54.1328L15.0801 54.127L17.1836 57.9297V58H15.9766ZM20.8516 58.1172C20.4102 58.1172 20.0098 58.043 19.6504 57.8945C19.2949 57.7422 18.9883 57.5293 18.7305 57.2559C18.4766 56.9824 18.2812 56.6582 18.1445 56.2832C18.0078 55.9082 17.9395 55.498 17.9395 55.0527V54.8066C17.9395 54.291 18.0156 53.832 18.168 53.4297C18.3203 53.0234 18.5273 52.6797 18.7891 52.3984C19.0508 52.1172 19.3477 51.9043 19.6797 51.7598C20.0117 51.6152 20.3555 51.543 20.7109 51.543C21.1641 51.543 21.5547 51.6211 21.8828 51.7773C22.2148 51.9336 22.4863 52.1523 22.6973 52.4336C22.9082 52.7109 23.0645 53.0391 23.166 53.418C23.2676 53.793 23.3184 54.2031 23.3184 54.6484V55.1348H18.584V54.25H22.2344V54.168C22.2188 53.8867 22.1602 53.6133 22.0586 53.3477C21.9609 53.082 21.8047 52.8633 21.5898 52.6914C21.375 52.5195 21.082 52.4336 20.7109 52.4336C20.4648 52.4336 20.2383 52.4863 20.0312 52.5918C19.8242 52.6934 19.6465 52.8457 19.498 53.0488C19.3496 53.252 19.2344 53.5 19.1523 53.793C19.0703 54.0859 19.0293 54.4238 19.0293 54.8066V55.0527C19.0293 55.3535 19.0703 55.6367 19.1523 55.9023C19.2383 56.1641 19.3613 56.3945 19.5215 56.5938C19.6855 56.793 19.8828 56.9492 20.1133 57.0625C20.3477 57.1758 20.6133 57.2324 20.9102 57.2324C21.293 57.2324 21.6172 57.1543 21.8828 56.998C22.1484 56.8418 22.3809 56.6328 22.5801 56.3711L23.2363 56.8926C23.0996 57.0996 22.9258 57.2969 22.7148 57.4844C22.5039 57.6719 22.2441 57.8242 21.9355 57.9414C21.6309 58.0586 21.2695 58.1172 20.8516 58.1172ZM28.3223 56.916V53.6523C28.3223 53.4023 28.2715 53.1855 28.1699 53.002C28.0723 52.8145 27.9238 52.6699 27.7246 52.5684C27.5254 52.4668 27.2793 52.416 26.9863 52.416C26.7129 52.416 26.4727 52.4629 26.2656 52.5566C26.0625 52.6504 25.9023 52.7734 25.7852 52.9258C25.6719 53.0781 25.6152 53.2422 25.6152 53.418H24.5312C24.5312 53.1914 24.5898 52.9668 24.707 52.7441C24.8242 52.5215 24.9922 52.3203 25.2109 52.1406C25.4336 51.957 25.6992 51.8125 26.0078 51.707C26.3203 51.5977 26.668 51.543 27.0508 51.543C27.5117 51.543 27.918 51.6211 28.2695 51.7773C28.625 51.9336 28.9023 52.1699 29.1016 52.4863C29.3047 52.7988 29.4062 53.1914 29.4062 53.6641V56.6172C29.4062 56.8281 29.4238 57.0527 29.459 57.291C29.498 57.5293 29.5547 57.7344 29.6289 57.9062V58H28.498C28.4434 57.875 28.4004 57.709 28.3691 57.502C28.3379 57.291 28.3223 57.0957 28.3223 56.916ZM28.5098 54.1562L28.5215 54.918H27.4258C27.1172 54.918 26.8418 54.9434 26.5996 54.9941C26.3574 55.041 26.1543 55.1133 25.9902 55.2109C25.8262 55.3086 25.7012 55.4316 25.6152 55.5801C25.5293 55.7246 25.4863 55.8945 25.4863 56.0898C25.4863 56.2891 25.5312 56.4707 25.6211 56.6348C25.7109 56.7988 25.8457 56.9297 26.0254 57.0273C26.209 57.1211 26.4336 57.168 26.6992 57.168C27.0312 57.168 27.3242 57.0977 27.5781 56.957C27.832 56.8164 28.0332 56.6445 28.1816 56.4414C28.334 56.2383 28.416 56.041 28.4277 55.8496L28.8906 56.3711C28.8633 56.5352 28.7891 56.7168 28.668 56.916C28.5469 57.1152 28.3848 57.3066 28.1816 57.4902C27.9824 57.6699 27.7441 57.8203 27.4668 57.9414C27.1934 58.0586 26.8848 58.1172 26.541 58.1172C26.1113 58.1172 25.7344 58.0332 25.4102 57.8652C25.0898 57.6973 24.8398 57.4727 24.6602 57.1914C24.4844 56.9062 24.3965 56.5879 24.3965 56.2363C24.3965 55.8965 24.4629 55.5977 24.5957 55.3398C24.7285 55.0781 24.9199 54.8613 25.1699 54.6895C25.4199 54.5137 25.7207 54.3809 26.0723 54.291C26.4238 54.2012 26.8164 54.1562 27.25 54.1562H28.5098ZM33.6484 57.2266C33.9062 57.2266 34.1445 57.1738 34.3633 57.0684C34.582 56.9629 34.7617 56.8184 34.9023 56.6348C35.043 56.4473 35.123 56.2344 35.1426 55.9961H36.1738C36.1543 56.3711 36.0273 56.7207 35.793 57.0449C35.5625 57.3652 35.2598 57.625 34.8848 57.8242C34.5098 58.0195 34.0977 58.1172 33.6484 58.1172C33.1719 58.1172 32.7559 58.0332 32.4004 57.8652C32.0488 57.6973 31.7559 57.4668 31.5215 57.1738C31.291 56.8809 31.1172 56.5449 31 56.166C30.8867 55.7832 30.8301 55.3789 30.8301 54.9531V54.707C30.8301 54.2812 30.8867 53.8789 31 53.5C31.1172 53.1172 31.291 52.7793 31.5215 52.4863C31.7559 52.1934 32.0488 51.9629 32.4004 51.7949C32.7559 51.627 33.1719 51.543 33.6484 51.543C34.1445 51.543 34.5781 51.6445 34.9492 51.8477C35.3203 52.0469 35.6113 52.3203 35.8223 52.668C36.0371 53.0117 36.1543 53.4023 36.1738 53.8398H35.1426C35.123 53.5781 35.0488 53.3418 34.9199 53.1309C34.7949 52.9199 34.623 52.752 34.4043 52.627C34.1895 52.498 33.9375 52.4336 33.6484 52.4336C33.3164 52.4336 33.0371 52.5 32.8105 52.6328C32.5879 52.7617 32.4102 52.9375 32.2773 53.1602C32.1484 53.3789 32.0547 53.623 31.9961 53.8926C31.9414 54.1582 31.9141 54.4297 31.9141 54.707V54.9531C31.9141 55.2305 31.9414 55.5039 31.9961 55.7734C32.0508 56.043 32.1426 56.2871 32.2715 56.5059C32.4043 56.7246 32.582 56.9004 32.8047 57.0332C33.0312 57.1621 33.3125 57.2266 33.6484 57.2266ZM40.0469 51.6602V52.4922H36.6191V51.6602H40.0469ZM37.7793 50.1191H38.8633V56.4297C38.8633 56.6445 38.8965 56.8066 38.9629 56.916C39.0293 57.0254 39.1152 57.0977 39.2207 57.1328C39.3262 57.168 39.4395 57.1855 39.5605 57.1855C39.6504 57.1855 39.7441 57.1777 39.8418 57.1621C39.9434 57.1426 40.0195 57.127 40.0703 57.1152L40.0762 58C39.9902 58.0273 39.877 58.0527 39.7363 58.0762C39.5996 58.1035 39.4336 58.1172 39.2383 58.1172C38.9727 58.1172 38.7285 58.0645 38.5059 57.959C38.2832 57.8535 38.1055 57.6777 37.9727 57.4316C37.8438 57.1816 37.7793 56.8457 37.7793 56.4238V50.1191ZM45.0625 55.5098V49.4688H46.1875V55.5098C46.1875 56.0723 46.0723 56.5469 45.8418 56.9336C45.6113 57.3203 45.293 57.6152 44.8867 57.8184C44.4844 58.0176 44.0215 58.1172 43.498 58.1172C42.9746 58.1172 42.5098 58.0273 42.1035 57.8477C41.6973 57.668 41.3789 57.3945 41.1484 57.0273C40.918 56.6602 40.8027 56.1973 40.8027 55.6387H41.9336C41.9336 55.998 42 56.293 42.1328 56.5234C42.2656 56.7539 42.4492 56.9238 42.6836 57.0332C42.9219 57.1426 43.1934 57.1973 43.498 57.1973C43.7949 57.1973 44.0605 57.1348 44.2949 57.0098C44.5332 56.8809 44.7207 56.6914 44.8574 56.4414C44.9941 56.1875 45.0625 55.877 45.0625 55.5098ZM51.6309 56.3184C51.6309 56.1621 51.5957 56.0176 51.5254 55.8848C51.459 55.748 51.3203 55.625 51.1094 55.5156C50.9023 55.4023 50.5898 55.3047 50.1719 55.2227C49.8203 55.1484 49.502 55.0605 49.2168 54.959C48.9355 54.8574 48.6953 54.7344 48.4961 54.5898C48.3008 54.4453 48.1504 54.2754 48.0449 54.0801C47.9395 53.8848 47.8867 53.6562 47.8867 53.3945C47.8867 53.1445 47.9414 52.9082 48.0508 52.6855C48.1641 52.4629 48.3223 52.2656 48.5254 52.0938C48.7324 51.9219 48.9805 51.7871 49.2695 51.6895C49.5586 51.5918 49.8809 51.543 50.2363 51.543C50.7441 51.543 51.1777 51.6328 51.5371 51.8125C51.8965 51.9922 52.1719 52.2324 52.3633 52.5332C52.5547 52.8301 52.6504 53.1602 52.6504 53.5234H51.5664C51.5664 53.3477 51.5137 53.1777 51.4082 53.0137C51.3066 52.8457 51.1562 52.707 50.957 52.5977C50.7617 52.4883 50.5215 52.4336 50.2363 52.4336C49.9355 52.4336 49.6914 52.4805 49.5039 52.5742C49.3203 52.6641 49.1855 52.7793 49.0996 52.9199C49.0176 53.0605 48.9766 53.209 48.9766 53.3652C48.9766 53.4824 48.9961 53.5879 49.0352 53.6816C49.0781 53.7715 49.1523 53.8555 49.2578 53.9336C49.3633 54.0078 49.5117 54.0781 49.7031 54.1445C49.8945 54.2109 50.1387 54.2773 50.4355 54.3438C50.9551 54.4609 51.3828 54.6016 51.7188 54.7656C52.0547 54.9297 52.3047 55.1309 52.4688 55.3691C52.6328 55.6074 52.7148 55.8965 52.7148 56.2363C52.7148 56.5137 52.6562 56.7676 52.5391 56.998C52.4258 57.2285 52.2598 57.4277 52.041 57.5957C51.8262 57.7598 51.5684 57.8887 51.2676 57.9824C50.9707 58.0723 50.6367 58.1172 50.2656 58.1172C49.707 58.1172 49.2344 58.0176 48.8477 57.8184C48.4609 57.6191 48.168 57.3613 47.9688 57.0449C47.7695 56.7285 47.6699 56.3945 47.6699 56.043H48.7598C48.7754 56.3398 48.8613 56.5762 49.0176 56.752C49.1738 56.9238 49.3652 57.0469 49.5918 57.1211C49.8184 57.1914 50.043 57.2266 50.2656 57.2266C50.5625 57.2266 50.8105 57.1875 51.0098 57.1094C51.2129 57.0312 51.3672 56.9238 51.4727 56.7871C51.5781 56.6504 51.6309 56.4941 51.6309 56.3184Z" fill="white"/>
</svg>
