<svg width="64" height="64" viewBox="0 0 64 64" fill="none" xmlns="http://www.w3.org/2000/svg">
<rect x="0.5" y="0.5" width="63" height="63" rx="3.5" stroke="white"/>
<path d="M24.5371 55.8438C24.5371 55.6445 24.5059 55.4688 24.4434 55.3164C24.3848 55.1602 24.2793 55.0195 24.127 54.8945C23.9785 54.7695 23.7715 54.6504 23.5059 54.5371C23.2441 54.4238 22.9121 54.3086 22.5098 54.1914C22.0879 54.0664 21.707 53.9277 21.3672 53.7754C21.0273 53.6191 20.7363 53.4414 20.4941 53.2422C20.252 53.043 20.0664 52.8145 19.9375 52.5566C19.8086 52.2988 19.7441 52.0039 19.7441 51.6719C19.7441 51.3398 19.8125 51.0332 19.9492 50.752C20.0859 50.4707 20.2812 50.2266 20.5352 50.0195C20.793 49.8086 21.0996 49.6445 21.4551 49.5273C21.8105 49.4102 22.207 49.3516 22.6445 49.3516C23.2852 49.3516 23.8281 49.4746 24.2734 49.7207C24.7227 49.9629 25.0645 50.2812 25.2988 50.6758C25.5332 51.0664 25.6504 51.4844 25.6504 51.9297H24.5254C24.5254 51.6094 24.457 51.3262 24.3203 51.0801C24.1836 50.8301 23.9766 50.6348 23.6992 50.4941C23.4219 50.3496 23.0703 50.2773 22.6445 50.2773C22.2422 50.2773 21.9102 50.3379 21.6484 50.459C21.3867 50.5801 21.1914 50.7441 21.0625 50.9512C20.9375 51.1582 20.875 51.3945 20.875 51.6602C20.875 51.8398 20.9121 52.0039 20.9863 52.1523C21.0645 52.2969 21.1836 52.4316 21.3438 52.5566C21.5078 52.6816 21.7148 52.7969 21.9648 52.9023C22.2188 53.0078 22.5215 53.1094 22.873 53.207C23.3574 53.3438 23.7754 53.4961 24.127 53.6641C24.4785 53.832 24.7676 54.0215 24.9941 54.2324C25.2246 54.4395 25.3945 54.6758 25.5039 54.9414C25.6172 55.2031 25.6738 55.5 25.6738 55.832C25.6738 56.1797 25.6035 56.4941 25.4629 56.7754C25.3223 57.0566 25.1211 57.2969 24.8594 57.4961C24.5977 57.6953 24.2832 57.8496 23.916 57.959C23.5527 58.0645 23.1465 58.1172 22.6973 58.1172C22.3027 58.1172 21.9141 58.0625 21.5312 57.9531C21.1523 57.8438 20.8066 57.6797 20.4941 57.4609C20.1855 57.2422 19.9375 56.9727 19.75 56.6523C19.5664 56.3281 19.4746 55.9531 19.4746 55.5273H20.5996C20.5996 55.8203 20.6562 56.0723 20.7695 56.2832C20.8828 56.4902 21.0371 56.6621 21.2324 56.7988C21.4316 56.9355 21.6562 57.0371 21.9062 57.1035C22.1602 57.166 22.4238 57.1973 22.6973 57.1973C23.0918 57.1973 23.4258 57.1426 23.6992 57.0332C23.9727 56.9238 24.1797 56.7676 24.3203 56.5645C24.4648 56.3613 24.5371 56.1211 24.5371 55.8438ZM30.6895 56.916V53.6523C30.6895 53.4023 30.6387 53.1855 30.5371 53.002C30.4395 52.8145 30.291 52.6699 30.0918 52.5684C29.8926 52.4668 29.6465 52.416 29.3535 52.416C29.0801 52.416 28.8398 52.4629 28.6328 52.5566C28.4297 52.6504 28.2695 52.7734 28.1523 52.9258C28.0391 53.0781 27.9824 53.2422 27.9824 53.418H26.8984C26.8984 53.1914 26.957 52.9668 27.0742 52.7441C27.1914 52.5215 27.3594 52.3203 27.5781 52.1406C27.8008 51.957 28.0664 51.8125 28.375 51.707C28.6875 51.5977 29.0352 51.543 29.418 51.543C29.8789 51.543 30.2852 51.6211 30.6367 51.7773C30.9922 51.9336 31.2695 52.1699 31.4688 52.4863C31.6719 52.7988 31.7734 53.1914 31.7734 53.6641V56.6172C31.7734 56.8281 31.791 57.0527 31.8262 57.291C31.8652 57.5293 31.9219 57.7344 31.9961 57.9062V58H30.8652C30.8105 57.875 30.7676 57.709 30.7363 57.502C30.7051 57.291 30.6895 57.0957 30.6895 56.916ZM30.877 54.1562L30.8887 54.918H29.793C29.4844 54.918 29.209 54.9434 28.9668 54.9941C28.7246 55.041 28.5215 55.1133 28.3574 55.2109C28.1934 55.3086 28.0684 55.4316 27.9824 55.5801C27.8965 55.7246 27.8535 55.8945 27.8535 56.0898C27.8535 56.2891 27.8984 56.4707 27.9883 56.6348C28.0781 56.7988 28.2129 56.9297 28.3926 57.0273C28.5762 57.1211 28.8008 57.168 29.0664 57.168C29.3984 57.168 29.6914 57.0977 29.9453 56.957C30.1992 56.8164 30.4004 56.6445 30.5488 56.4414C30.7012 56.2383 30.7832 56.041 30.7949 55.8496L31.2578 56.3711C31.2305 56.5352 31.1562 56.7168 31.0352 56.916C30.9141 57.1152 30.752 57.3066 30.5488 57.4902C30.3496 57.6699 30.1113 57.8203 29.834 57.9414C29.5605 58.0586 29.252 58.1172 28.9082 58.1172C28.4785 58.1172 28.1016 58.0332 27.7773 57.8652C27.457 57.6973 27.207 57.4727 27.0273 57.1914C26.8516 56.9062 26.7637 56.5879 26.7637 56.2363C26.7637 55.8965 26.8301 55.5977 26.9629 55.3398C27.0957 55.0781 27.2871 54.8613 27.5371 54.6895C27.7871 54.5137 28.0879 54.3809 28.4395 54.291C28.791 54.2012 29.1836 54.1562 29.6172 54.1562H30.877ZM37.1699 56.3184C37.1699 56.1621 37.1348 56.0176 37.0645 55.8848C36.998 55.748 36.8594 55.625 36.6484 55.5156C36.4414 55.4023 36.1289 55.3047 35.7109 55.2227C35.3594 55.1484 35.041 55.0605 34.7559 54.959C34.4746 54.8574 34.2344 54.7344 34.0352 54.5898C33.8398 54.4453 33.6895 54.2754 33.584 54.0801C33.4785 53.8848 33.4258 53.6562 33.4258 53.3945C33.4258 53.1445 33.4805 52.9082 33.5898 52.6855C33.7031 52.4629 33.8613 52.2656 34.0645 52.0938C34.2715 51.9219 34.5195 51.7871 34.8086 51.6895C35.0977 51.5918 35.4199 51.543 35.7754 51.543C36.2832 51.543 36.7168 51.6328 37.0762 51.8125C37.4355 51.9922 37.7109 52.2324 37.9023 52.5332C38.0938 52.8301 38.1895 53.1602 38.1895 53.5234H37.1055C37.1055 53.3477 37.0527 53.1777 36.9473 53.0137C36.8457 52.8457 36.6953 52.707 36.4961 52.5977C36.3008 52.4883 36.0605 52.4336 35.7754 52.4336C35.4746 52.4336 35.2305 52.4805 35.043 52.5742C34.8594 52.6641 34.7246 52.7793 34.6387 52.9199C34.5566 53.0605 34.5156 53.209 34.5156 53.3652C34.5156 53.4824 34.5352 53.5879 34.5742 53.6816C34.6172 53.7715 34.6914 53.8555 34.7969 53.9336C34.9023 54.0078 35.0508 54.0781 35.2422 54.1445C35.4336 54.2109 35.6777 54.2773 35.9746 54.3438C36.4941 54.4609 36.9219 54.6016 37.2578 54.7656C37.5938 54.9297 37.8438 55.1309 38.0078 55.3691C38.1719 55.6074 38.2539 55.8965 38.2539 56.2363C38.2539 56.5137 38.1953 56.7676 38.0781 56.998C37.9648 57.2285 37.7988 57.4277 37.5801 57.5957C37.3652 57.7598 37.1074 57.8887 36.8066 57.9824C36.5098 58.0723 36.1758 58.1172 35.8047 58.1172C35.2461 58.1172 34.7734 58.0176 34.3867 57.8184C34 57.6191 33.707 57.3613 33.5078 57.0449C33.3086 56.7285 33.209 56.3945 33.209 56.043H34.2988C34.3145 56.3398 34.4004 56.5762 34.5566 56.752C34.7129 56.9238 34.9043 57.0469 35.1309 57.1211C35.3574 57.1914 35.582 57.2266 35.8047 57.2266C36.1016 57.2266 36.3496 57.1875 36.5488 57.1094C36.752 57.0312 36.9062 56.9238 37.0117 56.7871C37.1172 56.6504 37.1699 56.4941 37.1699 56.3184ZM43.3691 56.3184C43.3691 56.1621 43.334 56.0176 43.2637 55.8848C43.1973 55.748 43.0586 55.625 42.8477 55.5156C42.6406 55.4023 42.3281 55.3047 41.9102 55.2227C41.5586 55.1484 41.2402 55.0605 40.9551 54.959C40.6738 54.8574 40.4336 54.7344 40.2344 54.5898C40.0391 54.4453 39.8887 54.2754 39.7832 54.0801C39.6777 53.8848 39.625 53.6562 39.625 53.3945C39.625 53.1445 39.6797 52.9082 39.7891 52.6855C39.9023 52.4629 40.0605 52.2656 40.2637 52.0938C40.4707 51.9219 40.7188 51.7871 41.0078 51.6895C41.2969 51.5918 41.6191 51.543 41.9746 51.543C42.4824 51.543 42.916 51.6328 43.2754 51.8125C43.6348 51.9922 43.9102 52.2324 44.1016 52.5332C44.293 52.8301 44.3887 53.1602 44.3887 53.5234H43.3047C43.3047 53.3477 43.252 53.1777 43.1465 53.0137C43.0449 52.8457 42.8945 52.707 42.6953 52.5977C42.5 52.4883 42.2598 52.4336 41.9746 52.4336C41.6738 52.4336 41.4297 52.4805 41.2422 52.5742C41.0586 52.6641 40.9238 52.7793 40.8379 52.9199C40.7559 53.0605 40.7148 53.209 40.7148 53.3652C40.7148 53.4824 40.7344 53.5879 40.7734 53.6816C40.8164 53.7715 40.8906 53.8555 40.9961 53.9336C41.1016 54.0078 41.25 54.0781 41.4414 54.1445C41.6328 54.2109 41.877 54.2773 42.1738 54.3438C42.6934 54.4609 43.1211 54.6016 43.457 54.7656C43.793 54.9297 44.043 55.1309 44.207 55.3691C44.3711 55.6074 44.4531 55.8965 44.4531 56.2363C44.4531 56.5137 44.3945 56.7676 44.2773 56.998C44.1641 57.2285 43.998 57.4277 43.7793 57.5957C43.5645 57.7598 43.3066 57.8887 43.0059 57.9824C42.709 58.0723 42.375 58.1172 42.0039 58.1172C41.4453 58.1172 40.9727 58.0176 40.5859 57.8184C40.1992 57.6191 39.9062 57.3613 39.707 57.0449C39.5078 56.7285 39.4082 56.3945 39.4082 56.043H40.498C40.5137 56.3398 40.5996 56.5762 40.7559 56.752C40.9121 56.9238 41.1035 57.0469 41.3301 57.1211C41.5566 57.1914 41.7812 57.2266 42.0039 57.2266C42.3008 57.2266 42.5488 57.1875 42.748 57.1094C42.9512 57.0312 43.1055 56.9238 43.2109 56.7871C43.3164 56.6504 43.3691 56.4941 43.3691 56.3184Z" fill="white"/>
<path d="M31.7906 36.3642C31.7789 36.388 31.7672 36.407 31.7906 36.3642V36.3642ZM41.5224 32.9208C40.7367 32.9205 39.9615 33.1033 39.2567 33.4551C39.0263 32.9841 38.788 32.5725 38.7489 32.2637C38.702 31.9036 38.6512 31.6898 38.7059 31.2624C38.7606 30.8349 39.0067 30.2293 39.0028 30.1858C38.9989 30.1423 38.9481 29.9246 38.4442 29.9206C37.9403 29.9166 37.5067 30.0196 37.4563 30.1541C37.3673 30.4001 37.2981 30.6529 37.2493 30.9101C37.1594 31.3732 36.2418 33.0276 35.7223 33.8905C35.5504 33.5541 35.4059 33.2572 35.3746 33.0197C35.3278 32.6595 35.277 32.4458 35.3317 32.0183C35.3864 31.5909 35.6325 30.9853 35.6286 30.9418C35.6247 30.8982 35.5739 30.6805 35.0703 30.6766C34.5668 30.6726 34.1328 30.7755 34.0821 30.9101C34.0313 31.0447 33.9766 31.3613 33.875 31.6661C33.7735 31.9709 32.5512 34.7256 32.2313 35.442C32.0672 35.8062 31.9266 36.0991 31.825 36.297C31.8094 36.3286 31.7977 36.3484 31.7898 36.3642C31.8016 36.3445 31.8094 36.3247 31.8094 36.3326C31.7234 36.5028 31.6727 36.5978 31.6727 36.5978V36.6017C31.6062 36.7284 31.532 36.8432 31.4969 36.8432C31.4734 36.8432 31.4226 36.5107 31.5086 36.0555C31.6922 35.0977 32.1258 33.6095 32.1219 33.558C32.118 33.5303 32.2039 33.273 31.8367 33.1345C31.4812 33.0039 31.3523 33.2216 31.3211 33.2216C31.2898 33.2216 31.2664 33.3007 31.2664 33.3007C31.2664 33.3007 31.6609 31.6225 30.509 31.6225C29.7902 31.6225 28.7902 32.4221 28.2988 33.1464C27.9902 33.3166 27.3222 33.6847 26.6191 34.0765C26.3495 34.2269 26.0722 34.3813 25.8105 34.5277C25.7909 34.5079 25.7753 34.4881 25.7558 34.4684C24.3577 32.9564 21.7764 31.8877 21.8858 29.8573C21.9249 29.1171 22.1788 27.1737 26.8495 24.8148C30.6777 22.8833 33.7383 23.4136 34.2653 24.5931C35.0231 26.2753 32.6289 29.4061 28.6535 29.8573C27.1382 30.0275 26.3417 29.4338 26.1425 29.2121C25.9355 28.9786 25.9042 28.9667 25.8261 29.0103C25.6972 29.0815 25.7792 29.2873 25.8261 29.41C25.9433 29.7227 26.4316 30.2768 27.2632 30.5539C27.9937 30.7953 29.7703 30.9299 31.9184 30.0868C34.3317 29.1448 36.2102 26.5207 35.6594 24.324C35.0985 22.0917 31.4453 21.3594 27.991 22.6022C25.9327 23.3424 23.7069 24.506 22.1057 26.022C20.2038 27.8268 19.8995 29.3981 20.0245 30.0552C20.4694 32.3864 23.6405 33.9063 24.9097 35.0304C24.8472 35.066 24.7886 35.0977 24.7339 35.1293C24.0976 35.4499 21.68 36.7323 21.0749 38.086C20.3913 39.6217 21.1882 40.722 21.7112 40.8724C23.3436 41.3315 25.0152 40.5043 25.9132 39.1467C26.8113 37.7891 26.7023 36.0159 26.2882 35.2085C26.2843 35.1966 26.2765 35.1887 26.2726 35.1768C26.4367 35.0779 26.6046 34.9789 26.7726 34.88C27.0964 34.686 27.4128 34.5079 27.6902 34.3536C27.5339 34.781 27.4207 35.2956 27.3621 36.0397C27.2917 36.9104 27.6472 38.0385 28.1082 38.4818C28.3113 38.6757 28.557 38.6797 28.7093 38.6797C29.2484 38.6797 29.4906 38.2285 29.7597 37.6902C30.0918 37.0331 30.3847 36.2693 30.3847 36.2693C30.3847 36.2693 30.0176 38.3353 31.0215 38.3353C31.3883 38.3353 31.7555 37.8564 31.9199 37.611V37.615C31.9199 37.615 31.9277 37.5991 31.9473 37.5675C31.9863 37.5081 32.0059 37.4725 32.0059 37.4725V37.4606C32.1543 37.2033 32.4785 36.6136 32.9664 35.6399C33.5992 34.3813 34.2043 32.81 34.2043 32.81C34.2628 33.1554 34.3437 33.4965 34.4465 33.8311C34.5559 34.2071 34.7864 34.6188 34.97 35.0185C34.8215 35.2243 34.7317 35.3431 34.7317 35.3431C34.732 35.3461 34.7334 35.3489 34.7356 35.351C34.6184 35.5093 34.4856 35.6795 34.3489 35.8457C33.8492 36.4474 33.2551 37.1361 33.177 37.334C33.0832 37.5675 33.1067 37.7416 33.2863 37.8762C33.4192 37.9791 33.6535 37.9949 33.8992 37.9752C34.3485 37.9435 34.6649 37.8327 34.8172 37.7614C35.0981 37.6594 35.3635 37.5182 35.6059 37.3419C36.0942 36.9777 36.3911 36.4553 36.3637 35.7666C36.3481 35.3866 36.227 35.0066 36.0786 34.6504C36.1215 34.5871 36.1684 34.5198 36.2114 34.4525C36.9844 33.3087 37.5821 32.0532 37.5821 32.0532C37.6406 32.3986 37.7215 32.7397 37.8243 33.0743C37.918 33.3949 38.1012 33.7472 38.2692 34.0916C37.543 34.6892 37.0938 35.3819 36.9376 35.837C36.6485 36.6801 36.8751 37.0601 37.3008 37.1471C37.4923 37.1867 37.7657 37.0957 37.9688 37.0086C38.2705 36.9068 38.5549 36.7586 38.8122 36.5693C39.3005 36.2051 39.7727 35.6945 39.7415 35.0019C39.7298 34.6892 39.6438 34.3765 39.5306 34.0757C40.1438 33.8145 40.9403 33.672 41.956 33.7907C44.131 34.048 44.5568 35.4254 44.4748 35.9993C44.3927 36.5732 43.9357 36.8938 43.7833 36.9888C43.631 37.0838 43.5841 37.1194 43.5958 37.1907C43.6154 37.2936 43.6857 37.2896 43.8146 37.2659C43.9943 37.2342 44.9548 36.7988 44.9978 35.7341C45.0603 34.3884 43.7833 32.9081 41.5212 32.92L41.5224 32.9208ZM24.7573 38.648C24.039 39.4436 23.0311 39.7444 22.5979 39.4911C22.1331 39.2172 22.3167 38.0464 23.203 37.1986C23.7421 36.6841 24.437 36.2091 24.898 35.9162C25.0034 35.8529 25.1558 35.7579 25.3433 35.6431C25.3745 35.6233 25.3902 35.6154 25.3902 35.6154C25.4253 35.5916 25.4644 35.5718 25.5034 35.5481C25.8273 36.7513 25.5152 37.8121 24.7573 38.6472V38.648ZM30.0058 35.0304C29.7558 35.6518 29.2289 37.235 28.9086 37.1519C28.6351 37.0806 28.4671 35.8735 28.8539 34.686C29.0492 34.0884 29.4633 33.3759 29.7093 33.0989C30.1035 32.6516 30.5371 32.5091 30.6387 32.6873C30.7754 32.9208 30.1621 34.6425 30.0058 35.0304ZM34.3418 37.1281C34.2364 37.1836 34.1387 37.2192 34.0918 37.1915C34.0567 37.1717 34.1348 37.0965 34.1348 37.0965C34.1348 37.0965 34.6778 36.5067 34.8926 36.2376C35.0176 36.0793 35.1621 35.8932 35.318 35.6874C35.318 35.7072 35.3219 35.727 35.3219 35.7508C35.3168 36.4592 34.6453 36.9382 34.3407 37.1281H34.3418ZM37.6848 36.3563C37.6067 36.3009 37.6184 36.1149 37.8801 35.537C37.9817 35.3114 38.2157 34.9314 38.6223 34.5673C38.6684 34.7051 38.6934 34.8493 38.6966 34.9948C38.6927 35.8853 38.0637 36.2178 37.6852 36.3563H37.6848Z" fill="#C06593"/>
</svg>
