<svg aria-hidden="true" focusable="false" data-prefix="fad" data-icon="chevron-double-up" role="img" xmlns="http://www.w3.org/2000/svg" viewBox="0 0 448 512" class="svg-inline--fa fa-chevron-double-up fa-w-14 fa-1x"><g class="fa-group"><path fill="currentColor" d="M435 420.86a24 24 0 0 1 0 33.94l-22.63 22.67a23.93 23.93 0 0 1-33.85 0L224 323.5l-154.5 154a23.93 23.93 0 0 1-33.85 0L13 454.8a24 24 0 0 1 0-33.94l194-194.33a23.93 23.93 0 0 1 33.88 0z" class="fa-secondary"/><path fill="currentColor" d="M435 228.86a24 24 0 0 1 0 33.94l-22.63 22.67a23.93 23.93 0 0 1-33.85 0L224 131.5l-154.5 154a23.93 23.93 0 0 1-33.85 0L13 262.8a24 24 0 0 1 0-33.94L207 34.53a23.93 23.93 0 0 1 33.88 0z" class="fa-primary"/></g></svg>